%TF.GenerationSoftware,KiCad,Pcbnew,(6.0.7)*%
%TF.CreationDate,2023-12-15T10:10:15-08:00*%
%TF.ProjectId,NiceView-BKB-Mount,4e696365-5669-4657-972d-424b422d4d6f,rev?*%
%TF.SameCoordinates,Original*%
%TF.FileFunction,Copper,L1,Top*%
%TF.FilePolarity,Positive*%
%FSLAX46Y46*%
G04 Gerber Fmt 4.6, Leading zero omitted, Abs format (unit mm)*
G04 Created by KiCad (PCBNEW (6.0.7)) date 2023-12-15 10:10:15*
%MOMM*%
%LPD*%
G01*
G04 APERTURE LIST*
%TA.AperFunction,ComponentPad*%
%ADD10C,4.000000*%
%TD*%
%TA.AperFunction,SMDPad,CuDef*%
%ADD11R,1.300000X1.800000*%
%TD*%
%TA.AperFunction,ComponentPad*%
%ADD12R,1.308000X1.308000*%
%TD*%
%TA.AperFunction,ComponentPad*%
%ADD13C,1.308000*%
%TD*%
%TA.AperFunction,ComponentPad*%
%ADD14O,1.230000X2.460000*%
%TD*%
%TA.AperFunction,ComponentPad*%
%ADD15C,1.397000*%
%TD*%
%TA.AperFunction,ComponentPad*%
%ADD16R,1.700000X1.700000*%
%TD*%
%TA.AperFunction,ComponentPad*%
%ADD17O,1.700000X1.700000*%
%TD*%
%TA.AperFunction,Conductor*%
%ADD18C,0.250000*%
%TD*%
G04 APERTURE END LIST*
D10*
%TO.P,TH1,*%
%TO.N,*%
X125500000Y-43750000D03*
%TD*%
D11*
%TO.P,RST_SW2,1,1*%
%TO.N,RST*%
X131750000Y-84150000D03*
X131800000Y-90350000D03*
%TO.P,RST_SW2,2,2*%
%TO.N,GND*%
X128300000Y-84150000D03*
X128300000Y-90250000D03*
%TD*%
D12*
%TO.P,PWR_SW1,1,A*%
%TO.N,BATT_P_IN1*%
X131000000Y-87250000D03*
D13*
%TO.P,PWR_SW1,2,B*%
%TO.N,BATT_P_OUT*%
X129000000Y-87250000D03*
%TO.P,PWR_SW1,3,C*%
%TO.N,BATT_P_IN2*%
X127000000Y-87250000D03*
D14*
%TO.P,PWR_SW1,S1*%
%TO.N,N/C*%
X133200000Y-87250000D03*
%TO.P,PWR_SW1,S2*%
X124800000Y-87250000D03*
%TD*%
D15*
%TO.P,Nice!View1,1,Pin_1*%
%TO.N,MOSI*%
X129420000Y-80750000D03*
%TO.P,Nice!View1,2,Pin_2*%
%TO.N,SCLK*%
X131960000Y-80750000D03*
%TO.P,Nice!View1,3,Pin_3*%
%TO.N,3V3*%
X134500000Y-80750000D03*
%TO.P,Nice!View1,4,Pin_4*%
%TO.N,GND*%
X137040000Y-80750000D03*
%TO.P,Nice!View1,5,Pin_5*%
%TO.N,SCS*%
X139580000Y-80750000D03*
%TD*%
D11*
%TO.P,RST_SW1,1,1*%
%TO.N,RST*%
X137200000Y-84150000D03*
X137250000Y-90350000D03*
%TO.P,RST_SW1,2,2*%
%TO.N,GND*%
X140700000Y-84250000D03*
X140700000Y-90350000D03*
%TD*%
D16*
%TO.P,ControllerInput1,1,Pin_1*%
%TO.N,MOSI*%
X134500000Y-72750000D03*
D17*
%TO.P,ControllerInput1,2,Pin_2*%
%TO.N,SCLK*%
X134500000Y-70210000D03*
%TO.P,ControllerInput1,3,Pin_3*%
%TO.N,3V3*%
X134500000Y-67670000D03*
%TO.P,ControllerInput1,4,Pin_4*%
%TO.N,GND*%
X134500000Y-65130000D03*
%TO.P,ControllerInput1,5,Pin_5*%
%TO.N,SCS*%
X134500000Y-62590000D03*
%TO.P,ControllerInput1,6,Pin_6*%
%TO.N,RST*%
X134500000Y-60050000D03*
%TD*%
D10*
%TO.P,TH1,*%
%TO.N,*%
X143500000Y-43750000D03*
%TD*%
D16*
%TO.P,PWR_Connectors1,1,Pin_1*%
%TO.N,BATT_P_IN1*%
X134500000Y-48750000D03*
D17*
%TO.P,PWR_Connectors1,2,Pin_2*%
%TO.N,BATT_P_OUT*%
X134500000Y-51290000D03*
%TO.P,PWR_Connectors1,3,Pin_3*%
%TO.N,BATT_P_IN2*%
X134500000Y-53830000D03*
%TD*%
D10*
%TO.P,TH1,*%
%TO.N,*%
X143500000Y-92750000D03*
%TD*%
D12*
%TO.P,PWR_SW2,1,A*%
%TO.N,BATT_P_IN1*%
X138000000Y-87250000D03*
D13*
%TO.P,PWR_SW2,2,B*%
%TO.N,BATT_P_OUT*%
X140000000Y-87250000D03*
%TO.P,PWR_SW2,3,C*%
%TO.N,BATT_P_IN2*%
X142000000Y-87250000D03*
D14*
%TO.P,PWR_SW2,S1*%
%TO.N,N/C*%
X135800000Y-87250000D03*
%TO.P,PWR_SW2,S2*%
X144200000Y-87250000D03*
%TD*%
D10*
%TO.P,TH1,*%
%TO.N,*%
X125500000Y-92750000D03*
%TD*%
D18*
%TO.N,GND*%
X129998000Y-91948000D02*
X139102000Y-91948000D01*
X128300000Y-83536000D02*
X128300000Y-84150000D01*
X129032000Y-82804000D02*
X128300000Y-83536000D01*
X140700000Y-84250000D02*
X140540000Y-84250000D01*
X137040000Y-80750000D02*
X134986000Y-82804000D01*
X140700000Y-71330000D02*
X134500000Y-65130000D01*
X123920000Y-90250000D02*
X128300000Y-90250000D01*
X134986000Y-82804000D02*
X129032000Y-82804000D01*
X123900000Y-84150000D02*
X123260000Y-84790000D01*
X123260000Y-89590000D02*
X123920000Y-90250000D01*
X128300000Y-84150000D02*
X123900000Y-84150000D01*
X123260000Y-84790000D02*
X123260000Y-89590000D01*
X139102000Y-91948000D02*
X140700000Y-90350000D01*
X128300000Y-90250000D02*
X129998000Y-91948000D01*
X140700000Y-84250000D02*
X140700000Y-71330000D01*
X140540000Y-84250000D02*
X137040000Y-80750000D01*
%TO.N,RST*%
X131800000Y-90350000D02*
X137250000Y-90350000D01*
X143256000Y-85090000D02*
X143256000Y-63754000D01*
X136350000Y-90350000D02*
X137250000Y-90350000D01*
X136300000Y-84150000D02*
X134620000Y-85830000D01*
X134620000Y-85830000D02*
X134620000Y-88620000D01*
X138902000Y-85852000D02*
X142494000Y-85852000D01*
X134620000Y-88620000D02*
X136350000Y-90350000D01*
X131750000Y-84150000D02*
X137200000Y-84150000D01*
X137200000Y-84150000D02*
X136300000Y-84150000D01*
X137200000Y-84150000D02*
X138902000Y-85852000D01*
X134606000Y-59944000D02*
X134500000Y-60050000D01*
X142494000Y-85852000D02*
X143256000Y-85090000D01*
X139446000Y-59944000D02*
X134606000Y-59944000D01*
X143256000Y-63754000D02*
X139446000Y-59944000D01*
%TD*%
%TA.AperFunction,Conductor*%
%TO.N,3V3*%
G36*
X142402387Y-41278502D02*
G01*
X142448880Y-41332158D01*
X142458984Y-41402432D01*
X142429490Y-41467012D01*
X142394967Y-41494914D01*
X142153221Y-41627816D01*
X141897860Y-41813346D01*
X141667767Y-42029418D01*
X141466568Y-42272625D01*
X141297438Y-42539131D01*
X141295754Y-42542710D01*
X141295750Y-42542717D01*
X141164733Y-42821144D01*
X141163044Y-42824734D01*
X141065505Y-43124928D01*
X141006359Y-43434980D01*
X140986540Y-43750000D01*
X141006359Y-44065020D01*
X141065505Y-44375072D01*
X141163044Y-44675266D01*
X141164731Y-44678852D01*
X141164733Y-44678856D01*
X141295750Y-44957283D01*
X141295754Y-44957290D01*
X141297438Y-44960869D01*
X141466568Y-45227375D01*
X141667767Y-45470582D01*
X141897860Y-45686654D01*
X142153221Y-45872184D01*
X142429821Y-46024247D01*
X142433490Y-46025700D01*
X142433495Y-46025702D01*
X142719628Y-46138990D01*
X142723298Y-46140443D01*
X143029025Y-46218940D01*
X143342179Y-46258500D01*
X143657821Y-46258500D01*
X143970975Y-46218940D01*
X144276702Y-46140443D01*
X144280372Y-46138990D01*
X144566505Y-46025702D01*
X144566510Y-46025700D01*
X144570179Y-46024247D01*
X144846779Y-45872184D01*
X145102140Y-45686654D01*
X145332233Y-45470582D01*
X145533432Y-45227375D01*
X145702562Y-44960869D01*
X145751492Y-44856887D01*
X145798594Y-44803766D01*
X145866939Y-44784543D01*
X145934827Y-44805322D01*
X145980704Y-44859505D01*
X145991500Y-44910535D01*
X145991500Y-91589465D01*
X145971498Y-91657586D01*
X145917842Y-91704079D01*
X145847568Y-91714183D01*
X145782988Y-91684689D01*
X145751492Y-91643113D01*
X145704249Y-91542717D01*
X145702562Y-91539131D01*
X145533432Y-91272625D01*
X145332233Y-91029418D01*
X145327564Y-91025033D01*
X145283335Y-90983500D01*
X145102140Y-90813346D01*
X145087573Y-90802762D01*
X145037780Y-90766586D01*
X144846779Y-90627816D01*
X144819093Y-90612595D01*
X144573648Y-90477660D01*
X144573647Y-90477659D01*
X144570179Y-90475753D01*
X144566510Y-90474300D01*
X144566505Y-90474298D01*
X144280372Y-90361010D01*
X144280371Y-90361010D01*
X144276702Y-90359557D01*
X143970975Y-90281060D01*
X143657821Y-90241500D01*
X143342179Y-90241500D01*
X143029025Y-90281060D01*
X142723298Y-90359557D01*
X142719629Y-90361010D01*
X142719628Y-90361010D01*
X142433495Y-90474298D01*
X142433490Y-90474300D01*
X142429821Y-90475753D01*
X142426353Y-90477659D01*
X142426352Y-90477660D01*
X142180908Y-90612595D01*
X142153221Y-90627816D01*
X142150019Y-90630142D01*
X142150018Y-90630143D01*
X142058561Y-90696590D01*
X141991693Y-90720449D01*
X141922541Y-90704368D01*
X141873061Y-90653454D01*
X141858500Y-90594654D01*
X141858500Y-89401866D01*
X141851745Y-89339684D01*
X141800615Y-89203295D01*
X141713261Y-89086739D01*
X141596705Y-88999385D01*
X141460316Y-88948255D01*
X141398134Y-88941500D01*
X140001866Y-88941500D01*
X139939684Y-88948255D01*
X139803295Y-88999385D01*
X139686739Y-89086739D01*
X139599385Y-89203295D01*
X139548255Y-89339684D01*
X139541500Y-89401866D01*
X139541500Y-90560405D01*
X139521498Y-90628526D01*
X139504595Y-90649500D01*
X138876500Y-91277595D01*
X138814188Y-91311621D01*
X138787405Y-91314500D01*
X138534500Y-91314500D01*
X138466379Y-91294498D01*
X138419886Y-91240842D01*
X138408500Y-91188500D01*
X138408500Y-89401866D01*
X138401745Y-89339684D01*
X138350615Y-89203295D01*
X138263261Y-89086739D01*
X138146705Y-88999385D01*
X138010316Y-88948255D01*
X137948134Y-88941500D01*
X136618029Y-88941500D01*
X136549908Y-88921498D01*
X136503415Y-88867842D01*
X136493311Y-88797568D01*
X136522805Y-88732988D01*
X136534033Y-88721781D01*
X136537457Y-88719352D01*
X136685706Y-88564489D01*
X136740624Y-88479436D01*
X136798745Y-88389423D01*
X136798746Y-88389420D01*
X136801997Y-88384386D01*
X136804239Y-88378823D01*
X136818909Y-88342423D01*
X136862925Y-88286717D01*
X136930070Y-88263651D01*
X136999027Y-88280549D01*
X137011337Y-88288694D01*
X137099295Y-88354615D01*
X137235684Y-88405745D01*
X137297866Y-88412500D01*
X138702134Y-88412500D01*
X138764316Y-88405745D01*
X138900705Y-88354615D01*
X139017261Y-88267261D01*
X139084082Y-88178102D01*
X139140940Y-88135588D01*
X139211758Y-88130562D01*
X139263183Y-88155258D01*
X139265281Y-88157302D01*
X139270083Y-88160511D01*
X139270086Y-88160513D01*
X139351587Y-88214970D01*
X139442927Y-88276001D01*
X139448230Y-88278279D01*
X139448233Y-88278281D01*
X139633922Y-88358059D01*
X139639229Y-88360339D01*
X139720916Y-88378823D01*
X139841977Y-88406217D01*
X139841980Y-88406217D01*
X139847613Y-88407492D01*
X139853384Y-88407719D01*
X139853386Y-88407719D01*
X139918363Y-88410272D01*
X140061101Y-88415880D01*
X140166822Y-88400551D01*
X140266829Y-88386051D01*
X140266834Y-88386050D01*
X140272543Y-88385222D01*
X140278007Y-88383367D01*
X140278012Y-88383366D01*
X140469389Y-88318402D01*
X140474857Y-88316546D01*
X140661268Y-88212151D01*
X140825533Y-88075533D01*
X140901251Y-87984493D01*
X140960187Y-87944909D01*
X141031169Y-87943473D01*
X141091660Y-87980640D01*
X141101021Y-87992342D01*
X141112241Y-88008218D01*
X141265281Y-88157302D01*
X141270084Y-88160512D01*
X141270085Y-88160512D01*
X141347369Y-88212151D01*
X141442927Y-88276001D01*
X141448230Y-88278279D01*
X141448233Y-88278281D01*
X141633922Y-88358059D01*
X141639229Y-88360339D01*
X141720916Y-88378823D01*
X141841977Y-88406217D01*
X141841980Y-88406217D01*
X141847613Y-88407492D01*
X141853384Y-88407719D01*
X141853386Y-88407719D01*
X141918363Y-88410272D01*
X142061101Y-88415880D01*
X142166822Y-88400551D01*
X142266829Y-88386051D01*
X142266834Y-88386050D01*
X142272543Y-88385222D01*
X142278007Y-88383367D01*
X142278012Y-88383366D01*
X142469389Y-88318402D01*
X142474857Y-88316546D01*
X142661268Y-88212151D01*
X142825533Y-88075533D01*
X142829226Y-88071093D01*
X142871469Y-88020302D01*
X142930406Y-87980718D01*
X143001388Y-87979283D01*
X143061878Y-88016451D01*
X143091516Y-88075942D01*
X143091752Y-88078415D01*
X143093439Y-88084165D01*
X143149718Y-88276001D01*
X143152102Y-88284129D01*
X143154848Y-88289461D01*
X143154849Y-88289463D01*
X143203738Y-88384386D01*
X143250263Y-88474721D01*
X143382692Y-88643312D01*
X143544613Y-88783819D01*
X143730181Y-88891173D01*
X143932702Y-88961500D01*
X143938637Y-88962361D01*
X143938639Y-88962361D01*
X144138928Y-88991402D01*
X144138931Y-88991402D01*
X144144868Y-88992263D01*
X144359023Y-88982351D01*
X144567439Y-88932122D01*
X144572889Y-88929644D01*
X144572892Y-88929643D01*
X144696166Y-88873593D01*
X144762598Y-88843388D01*
X144937457Y-88719352D01*
X145085706Y-88564489D01*
X145140624Y-88479436D01*
X145198745Y-88389423D01*
X145198746Y-88389420D01*
X145201997Y-88384386D01*
X145211175Y-88361614D01*
X145279892Y-88191106D01*
X145282134Y-88185543D01*
X145323224Y-87975133D01*
X145323500Y-87969489D01*
X145323500Y-86581442D01*
X145308248Y-86421585D01*
X145304821Y-86409902D01*
X145249586Y-86221624D01*
X145249585Y-86221622D01*
X145247898Y-86215871D01*
X145217875Y-86157577D01*
X145152483Y-86030610D01*
X145152481Y-86030607D01*
X145149737Y-86025279D01*
X145017308Y-85856688D01*
X144855387Y-85716181D01*
X144669819Y-85608827D01*
X144467298Y-85538500D01*
X144461363Y-85537639D01*
X144461361Y-85537639D01*
X144261072Y-85508598D01*
X144261069Y-85508598D01*
X144255132Y-85507737D01*
X144040977Y-85517649D01*
X143975833Y-85533349D01*
X143904925Y-85529864D01*
X143847155Y-85488596D01*
X143820867Y-85422645D01*
X143835898Y-85350157D01*
X143842581Y-85338000D01*
X143849695Y-85325060D01*
X143854733Y-85305437D01*
X143861137Y-85286734D01*
X143866033Y-85275420D01*
X143866033Y-85275419D01*
X143869181Y-85268145D01*
X143870420Y-85260322D01*
X143870423Y-85260312D01*
X143876099Y-85224476D01*
X143878505Y-85212856D01*
X143887528Y-85177711D01*
X143887528Y-85177710D01*
X143889500Y-85170030D01*
X143889500Y-85149776D01*
X143891051Y-85130065D01*
X143892980Y-85117886D01*
X143894220Y-85110057D01*
X143890059Y-85066038D01*
X143889500Y-85054181D01*
X143889500Y-63832768D01*
X143890027Y-63821585D01*
X143891702Y-63814092D01*
X143889562Y-63746001D01*
X143889500Y-63742044D01*
X143889500Y-63714144D01*
X143888996Y-63710153D01*
X143888063Y-63698311D01*
X143886923Y-63662036D01*
X143886674Y-63654111D01*
X143881021Y-63634652D01*
X143877012Y-63615293D01*
X143876846Y-63613983D01*
X143874474Y-63595203D01*
X143871558Y-63587837D01*
X143871556Y-63587831D01*
X143858200Y-63554098D01*
X143854355Y-63542868D01*
X143844230Y-63508017D01*
X143844230Y-63508016D01*
X143842019Y-63500407D01*
X143831705Y-63482966D01*
X143823008Y-63465213D01*
X143818472Y-63453758D01*
X143815552Y-63446383D01*
X143789563Y-63410612D01*
X143783047Y-63400692D01*
X143760542Y-63362638D01*
X143746221Y-63348317D01*
X143733380Y-63333283D01*
X143726131Y-63323306D01*
X143721472Y-63316893D01*
X143687395Y-63288702D01*
X143678616Y-63280712D01*
X139949652Y-59551747D01*
X139942112Y-59543461D01*
X139938000Y-59536982D01*
X139888348Y-59490356D01*
X139885507Y-59487602D01*
X139865770Y-59467865D01*
X139862573Y-59465385D01*
X139853551Y-59457680D01*
X139827100Y-59432841D01*
X139821321Y-59427414D01*
X139814375Y-59423595D01*
X139814372Y-59423593D01*
X139803566Y-59417652D01*
X139787047Y-59406801D01*
X139786583Y-59406441D01*
X139771041Y-59394386D01*
X139763772Y-59391241D01*
X139763768Y-59391238D01*
X139730463Y-59376826D01*
X139719813Y-59371609D01*
X139681060Y-59350305D01*
X139661437Y-59345267D01*
X139642734Y-59338863D01*
X139631420Y-59333967D01*
X139631419Y-59333967D01*
X139624145Y-59330819D01*
X139616322Y-59329580D01*
X139616312Y-59329577D01*
X139580476Y-59323901D01*
X139568856Y-59321495D01*
X139533711Y-59312472D01*
X139533710Y-59312472D01*
X139526030Y-59310500D01*
X139505776Y-59310500D01*
X139486065Y-59308949D01*
X139473886Y-59307020D01*
X139466057Y-59305780D01*
X139458165Y-59306526D01*
X139422039Y-59309941D01*
X139410181Y-59310500D01*
X135708231Y-59310500D01*
X135640110Y-59290498D01*
X135602440Y-59252941D01*
X135582824Y-59222621D01*
X135580014Y-59218277D01*
X135429670Y-59053051D01*
X135425619Y-59049852D01*
X135425615Y-59049848D01*
X135258414Y-58917800D01*
X135258410Y-58917798D01*
X135254359Y-58914598D01*
X135058789Y-58806638D01*
X135053920Y-58804914D01*
X135053916Y-58804912D01*
X134853087Y-58733795D01*
X134853083Y-58733794D01*
X134848212Y-58732069D01*
X134843119Y-58731162D01*
X134843116Y-58731161D01*
X134633373Y-58693800D01*
X134633367Y-58693799D01*
X134628284Y-58692894D01*
X134554452Y-58691992D01*
X134410081Y-58690228D01*
X134410079Y-58690228D01*
X134404911Y-58690165D01*
X134184091Y-58723955D01*
X133971756Y-58793357D01*
X133773607Y-58896507D01*
X133769474Y-58899610D01*
X133769471Y-58899612D01*
X133745247Y-58917800D01*
X133594965Y-59030635D01*
X133440629Y-59192138D01*
X133314743Y-59376680D01*
X133297940Y-59412879D01*
X133240334Y-59536982D01*
X133220688Y-59579305D01*
X133160989Y-59794570D01*
X133137251Y-60016695D01*
X133150110Y-60239715D01*
X133151247Y-60244761D01*
X133151248Y-60244767D01*
X133175304Y-60351508D01*
X133199222Y-60457639D01*
X133247892Y-60577500D01*
X133276387Y-60647674D01*
X133283266Y-60664616D01*
X133399987Y-60855088D01*
X133546250Y-61023938D01*
X133718126Y-61166632D01*
X133788595Y-61207811D01*
X133791445Y-61209476D01*
X133840169Y-61261114D01*
X133853240Y-61330897D01*
X133826509Y-61396669D01*
X133786055Y-61430027D01*
X133773607Y-61436507D01*
X133769474Y-61439610D01*
X133769471Y-61439612D01*
X133745247Y-61457800D01*
X133594965Y-61570635D01*
X133440629Y-61732138D01*
X133314743Y-61916680D01*
X133220688Y-62119305D01*
X133160989Y-62334570D01*
X133137251Y-62556695D01*
X133137548Y-62561848D01*
X133137548Y-62561851D01*
X133143011Y-62656590D01*
X133150110Y-62779715D01*
X133151247Y-62784761D01*
X133151248Y-62784767D01*
X133171119Y-62872939D01*
X133199222Y-62997639D01*
X133283266Y-63204616D01*
X133285965Y-63209020D01*
X133380102Y-63362638D01*
X133399987Y-63395088D01*
X133546250Y-63563938D01*
X133718126Y-63706632D01*
X133778727Y-63742044D01*
X133791445Y-63749476D01*
X133840169Y-63801114D01*
X133853240Y-63870897D01*
X133826509Y-63936669D01*
X133786055Y-63970027D01*
X133773607Y-63976507D01*
X133769474Y-63979610D01*
X133769471Y-63979612D01*
X133745247Y-63997800D01*
X133594965Y-64110635D01*
X133440629Y-64272138D01*
X133314743Y-64456680D01*
X133220688Y-64659305D01*
X133160989Y-64874570D01*
X133137251Y-65096695D01*
X133137548Y-65101848D01*
X133137548Y-65101851D01*
X133143011Y-65196590D01*
X133150110Y-65319715D01*
X133151247Y-65324761D01*
X133151248Y-65324767D01*
X133171119Y-65412939D01*
X133199222Y-65537639D01*
X133283266Y-65744616D01*
X133399987Y-65935088D01*
X133546250Y-66103938D01*
X133718126Y-66246632D01*
X133791955Y-66289774D01*
X133840679Y-66341412D01*
X133853750Y-66411195D01*
X133827019Y-66476967D01*
X133786562Y-66510327D01*
X133778457Y-66514546D01*
X133769738Y-66520036D01*
X133599433Y-66647905D01*
X133591726Y-66654748D01*
X133444590Y-66808717D01*
X133438104Y-66816727D01*
X133318098Y-66992649D01*
X133313000Y-67001623D01*
X133223338Y-67194783D01*
X133219775Y-67204470D01*
X133164389Y-67404183D01*
X133165912Y-67412607D01*
X133178292Y-67416000D01*
X135836459Y-67416000D01*
X135836459Y-67420775D01*
X135873133Y-67420792D01*
X135926673Y-67452577D01*
X138006496Y-69532401D01*
X140029595Y-71555500D01*
X140063621Y-71617812D01*
X140066500Y-71644595D01*
X140066500Y-79466572D01*
X140046498Y-79534693D01*
X139992842Y-79581186D01*
X139922568Y-79591290D01*
X139907893Y-79588280D01*
X139837802Y-79569499D01*
X139795709Y-79558220D01*
X139795707Y-79558220D01*
X139790394Y-79556796D01*
X139580000Y-79538389D01*
X139369606Y-79556796D01*
X139364293Y-79558220D01*
X139364291Y-79558220D01*
X139170915Y-79610035D01*
X139170913Y-79610036D01*
X139165605Y-79611458D01*
X139160624Y-79613780D01*
X139160623Y-79613781D01*
X138979176Y-79698391D01*
X138979173Y-79698393D01*
X138974195Y-79700714D01*
X138801191Y-79821852D01*
X138651852Y-79971191D01*
X138530714Y-80144195D01*
X138441458Y-80335605D01*
X138440036Y-80340913D01*
X138440035Y-80340915D01*
X138431707Y-80371996D01*
X138394755Y-80432619D01*
X138330894Y-80463640D01*
X138260400Y-80455212D01*
X138205653Y-80410009D01*
X138188293Y-80371996D01*
X138179965Y-80340915D01*
X138179964Y-80340913D01*
X138178542Y-80335605D01*
X138089286Y-80144195D01*
X137968148Y-79971191D01*
X137818809Y-79821852D01*
X137814301Y-79818695D01*
X137814298Y-79818693D01*
X137650315Y-79703871D01*
X137650312Y-79703869D01*
X137645806Y-79700714D01*
X137640824Y-79698391D01*
X137640819Y-79698388D01*
X137459377Y-79613781D01*
X137459376Y-79613781D01*
X137454395Y-79611458D01*
X137449087Y-79610036D01*
X137449085Y-79610035D01*
X137255709Y-79558220D01*
X137255707Y-79558220D01*
X137250394Y-79556796D01*
X137040000Y-79538389D01*
X136829606Y-79556796D01*
X136824293Y-79558220D01*
X136824291Y-79558220D01*
X136630915Y-79610035D01*
X136630913Y-79610036D01*
X136625605Y-79611458D01*
X136620624Y-79613780D01*
X136620623Y-79613781D01*
X136439176Y-79698391D01*
X136439173Y-79698393D01*
X136434195Y-79700714D01*
X136261191Y-79821852D01*
X136111852Y-79971191D01*
X135990714Y-80144195D01*
X135901458Y-80335605D01*
X135900036Y-80340911D01*
X135900033Y-80340920D01*
X135891103Y-80374247D01*
X135854151Y-80434869D01*
X135790290Y-80465890D01*
X135719796Y-80457460D01*
X135665049Y-80412257D01*
X135648127Y-80375835D01*
X135632755Y-80321328D01*
X135628636Y-80310597D01*
X135535671Y-80122083D01*
X135529665Y-80112281D01*
X135526510Y-80108056D01*
X135515251Y-80099607D01*
X135502833Y-80106378D01*
X134500000Y-81109210D01*
X133858241Y-81750970D01*
X133852046Y-81762315D01*
X133861927Y-81774802D01*
X133917041Y-81811627D01*
X133927146Y-81817114D01*
X134120267Y-81900086D01*
X134131210Y-81903641D01*
X134210607Y-81921607D01*
X134272634Y-81956150D01*
X134306138Y-82018743D01*
X134300484Y-82089514D01*
X134257465Y-82145994D01*
X134190741Y-82170249D01*
X134182799Y-82170500D01*
X132279180Y-82170500D01*
X132211059Y-82150498D01*
X132164566Y-82096842D01*
X132154462Y-82026568D01*
X132183956Y-81961988D01*
X132246569Y-81922793D01*
X132369085Y-81889965D01*
X132369087Y-81889964D01*
X132374395Y-81888542D01*
X132379377Y-81886219D01*
X132560819Y-81801612D01*
X132560824Y-81801609D01*
X132565806Y-81799286D01*
X132618606Y-81762315D01*
X132734298Y-81681307D01*
X132734301Y-81681305D01*
X132738809Y-81678148D01*
X132888148Y-81528809D01*
X133009286Y-81355805D01*
X133098542Y-81164395D01*
X133099965Y-81159085D01*
X133099967Y-81159080D01*
X133107983Y-81129164D01*
X133144935Y-81068542D01*
X133208796Y-81037521D01*
X133279290Y-81045951D01*
X133334037Y-81091154D01*
X133351812Y-81130763D01*
X133356408Y-81148861D01*
X133360250Y-81159710D01*
X133448247Y-81350592D01*
X133453996Y-81360549D01*
X133475112Y-81390427D01*
X133485702Y-81398816D01*
X133499001Y-81391788D01*
X134127979Y-80762811D01*
X134135592Y-80748868D01*
X134135461Y-80747034D01*
X134131210Y-80740420D01*
X133495603Y-80104814D01*
X133483228Y-80098057D01*
X133477262Y-80102523D01*
X133383256Y-80281198D01*
X133378851Y-80291832D01*
X133351329Y-80380466D01*
X133312025Y-80439591D01*
X133246996Y-80468082D01*
X133176887Y-80456892D01*
X133123957Y-80409575D01*
X133109289Y-80375713D01*
X133099965Y-80340915D01*
X133099964Y-80340913D01*
X133098542Y-80335605D01*
X133009286Y-80144195D01*
X132888148Y-79971191D01*
X132738809Y-79821852D01*
X132734301Y-79818695D01*
X132734298Y-79818693D01*
X132617354Y-79736808D01*
X133850921Y-79736808D01*
X133854407Y-79745196D01*
X134487189Y-80377979D01*
X134501132Y-80385592D01*
X134502966Y-80385461D01*
X134509580Y-80381210D01*
X135141700Y-79749089D01*
X135148457Y-79736714D01*
X135142427Y-79728658D01*
X135054972Y-79673478D01*
X135044721Y-79668254D01*
X134849497Y-79590368D01*
X134838469Y-79587101D01*
X134632322Y-79546096D01*
X134620875Y-79544893D01*
X134410716Y-79542142D01*
X134399236Y-79543045D01*
X134192087Y-79578640D01*
X134180979Y-79581617D01*
X133983782Y-79654366D01*
X133973400Y-79659318D01*
X133860519Y-79726475D01*
X133850921Y-79736808D01*
X132617354Y-79736808D01*
X132570315Y-79703871D01*
X132570312Y-79703869D01*
X132565806Y-79700714D01*
X132560824Y-79698391D01*
X132560819Y-79698388D01*
X132379377Y-79613781D01*
X132379376Y-79613781D01*
X132374395Y-79611458D01*
X132369087Y-79610036D01*
X132369085Y-79610035D01*
X132175709Y-79558220D01*
X132175707Y-79558220D01*
X132170394Y-79556796D01*
X131960000Y-79538389D01*
X131749606Y-79556796D01*
X131744293Y-79558220D01*
X131744291Y-79558220D01*
X131550915Y-79610035D01*
X131550913Y-79610036D01*
X131545605Y-79611458D01*
X131540624Y-79613780D01*
X131540623Y-79613781D01*
X131359176Y-79698391D01*
X131359173Y-79698393D01*
X131354195Y-79700714D01*
X131181191Y-79821852D01*
X131031852Y-79971191D01*
X130910714Y-80144195D01*
X130821458Y-80335605D01*
X130820036Y-80340913D01*
X130820035Y-80340915D01*
X130811707Y-80371996D01*
X130774755Y-80432619D01*
X130710894Y-80463640D01*
X130640400Y-80455212D01*
X130585653Y-80410009D01*
X130568293Y-80371996D01*
X130559965Y-80340915D01*
X130559964Y-80340913D01*
X130558542Y-80335605D01*
X130469286Y-80144195D01*
X130348148Y-79971191D01*
X130198809Y-79821852D01*
X130194301Y-79818695D01*
X130194298Y-79818693D01*
X130030315Y-79703871D01*
X130030312Y-79703869D01*
X130025806Y-79700714D01*
X130020824Y-79698391D01*
X130020819Y-79698388D01*
X129839377Y-79613781D01*
X129839376Y-79613781D01*
X129834395Y-79611458D01*
X129829087Y-79610036D01*
X129829085Y-79610035D01*
X129635709Y-79558220D01*
X129635707Y-79558220D01*
X129630394Y-79556796D01*
X129420000Y-79538389D01*
X129209606Y-79556796D01*
X129204293Y-79558220D01*
X129204291Y-79558220D01*
X129010915Y-79610035D01*
X129010913Y-79610036D01*
X129005605Y-79611458D01*
X129000624Y-79613780D01*
X129000623Y-79613781D01*
X128819176Y-79698391D01*
X128819173Y-79698393D01*
X128814195Y-79700714D01*
X128641191Y-79821852D01*
X128491852Y-79971191D01*
X128370714Y-80144195D01*
X128281458Y-80335605D01*
X128280036Y-80340913D01*
X128280035Y-80340915D01*
X128269238Y-80381210D01*
X128226796Y-80539606D01*
X128208389Y-80750000D01*
X128226796Y-80960394D01*
X128228220Y-80965707D01*
X128228220Y-80965709D01*
X128277296Y-81148861D01*
X128281458Y-81164395D01*
X128370714Y-81355805D01*
X128491852Y-81528809D01*
X128641191Y-81678148D01*
X128645699Y-81681305D01*
X128645702Y-81681307D01*
X128761394Y-81762315D01*
X128814194Y-81799286D01*
X128819176Y-81801609D01*
X128819181Y-81801612D01*
X129000623Y-81886219D01*
X129005605Y-81888542D01*
X129010913Y-81889964D01*
X129010915Y-81889965D01*
X129128012Y-81921341D01*
X129188635Y-81958293D01*
X129219656Y-82022154D01*
X129211228Y-82092648D01*
X129166025Y-82147395D01*
X129098399Y-82169012D01*
X129094699Y-82168882D01*
X129092091Y-82168299D01*
X129024033Y-82170438D01*
X129020075Y-82170500D01*
X128992144Y-82170500D01*
X128988229Y-82170995D01*
X128988225Y-82170995D01*
X128988167Y-82171003D01*
X128988138Y-82171006D01*
X128976296Y-82171939D01*
X128932110Y-82173327D01*
X128914744Y-82178372D01*
X128912658Y-82178978D01*
X128893306Y-82182986D01*
X128886235Y-82183880D01*
X128873203Y-82185526D01*
X128865834Y-82188443D01*
X128865832Y-82188444D01*
X128832097Y-82201800D01*
X128820869Y-82205645D01*
X128778407Y-82217982D01*
X128771585Y-82222016D01*
X128771579Y-82222019D01*
X128760968Y-82228294D01*
X128743218Y-82236990D01*
X128731756Y-82241528D01*
X128731751Y-82241531D01*
X128724383Y-82244448D01*
X128717968Y-82249109D01*
X128688625Y-82270427D01*
X128678707Y-82276943D01*
X128660019Y-82287995D01*
X128640637Y-82299458D01*
X128626313Y-82313782D01*
X128611281Y-82326621D01*
X128594893Y-82338528D01*
X128566712Y-82372593D01*
X128558722Y-82381373D01*
X128235500Y-82704595D01*
X128173188Y-82738621D01*
X128146405Y-82741500D01*
X127601866Y-82741500D01*
X127539684Y-82748255D01*
X127403295Y-82799385D01*
X127286739Y-82886739D01*
X127199385Y-83003295D01*
X127148255Y-83139684D01*
X127141500Y-83201866D01*
X127141500Y-83390500D01*
X127121498Y-83458621D01*
X127067842Y-83505114D01*
X127015500Y-83516500D01*
X123978768Y-83516500D01*
X123967585Y-83515973D01*
X123960092Y-83514298D01*
X123952166Y-83514547D01*
X123952165Y-83514547D01*
X123892002Y-83516438D01*
X123888044Y-83516500D01*
X123860144Y-83516500D01*
X123856154Y-83517004D01*
X123844320Y-83517936D01*
X123800111Y-83519326D01*
X123792495Y-83521539D01*
X123792493Y-83521539D01*
X123780652Y-83524979D01*
X123761293Y-83528988D01*
X123759983Y-83529154D01*
X123741203Y-83531526D01*
X123733837Y-83534442D01*
X123733831Y-83534444D01*
X123700098Y-83547800D01*
X123688868Y-83551645D01*
X123654017Y-83561770D01*
X123646407Y-83563981D01*
X123639584Y-83568016D01*
X123628966Y-83574295D01*
X123611213Y-83582992D01*
X123603568Y-83586019D01*
X123592383Y-83590448D01*
X123585968Y-83595109D01*
X123556612Y-83616437D01*
X123546695Y-83622951D01*
X123508638Y-83645458D01*
X123494317Y-83659779D01*
X123479284Y-83672619D01*
X123462893Y-83684528D01*
X123436516Y-83716413D01*
X123434712Y-83718593D01*
X123426722Y-83727373D01*
X123223595Y-83930500D01*
X123161283Y-83964526D01*
X123090468Y-83959461D01*
X123033632Y-83916914D01*
X123008821Y-83850394D01*
X123008500Y-83841405D01*
X123008500Y-70176695D01*
X133137251Y-70176695D01*
X133137548Y-70181848D01*
X133137548Y-70181851D01*
X133143011Y-70276590D01*
X133150110Y-70399715D01*
X133151247Y-70404761D01*
X133151248Y-70404767D01*
X133171119Y-70492939D01*
X133199222Y-70617639D01*
X133283266Y-70824616D01*
X133305515Y-70860923D01*
X133382538Y-70986613D01*
X133399987Y-71015088D01*
X133546250Y-71183938D01*
X133550230Y-71187242D01*
X133554981Y-71191187D01*
X133594616Y-71250090D01*
X133596113Y-71321071D01*
X133558997Y-71381593D01*
X133518724Y-71406112D01*
X133403295Y-71449385D01*
X133286739Y-71536739D01*
X133199385Y-71653295D01*
X133148255Y-71789684D01*
X133141500Y-71851866D01*
X133141500Y-73648134D01*
X133148255Y-73710316D01*
X133199385Y-73846705D01*
X133286739Y-73963261D01*
X133403295Y-74050615D01*
X133539684Y-74101745D01*
X133601866Y-74108500D01*
X135398134Y-74108500D01*
X135460316Y-74101745D01*
X135596705Y-74050615D01*
X135713261Y-73963261D01*
X135800615Y-73846705D01*
X135851745Y-73710316D01*
X135858500Y-73648134D01*
X135858500Y-71851866D01*
X135851745Y-71789684D01*
X135800615Y-71653295D01*
X135713261Y-71536739D01*
X135596705Y-71449385D01*
X135584132Y-71444672D01*
X135478203Y-71404960D01*
X135421439Y-71362318D01*
X135396739Y-71295756D01*
X135411947Y-71226408D01*
X135433493Y-71197727D01*
X135538096Y-71093489D01*
X135597594Y-71010689D01*
X135665435Y-70916277D01*
X135668453Y-70912077D01*
X135677935Y-70892893D01*
X135765136Y-70716453D01*
X135765137Y-70716451D01*
X135767430Y-70711811D01*
X135832370Y-70498069D01*
X135861529Y-70276590D01*
X135863156Y-70210000D01*
X135844852Y-69987361D01*
X135790431Y-69770702D01*
X135701354Y-69565840D01*
X135580014Y-69378277D01*
X135429670Y-69213051D01*
X135425619Y-69209852D01*
X135425615Y-69209848D01*
X135258414Y-69077800D01*
X135258410Y-69077798D01*
X135254359Y-69074598D01*
X135212569Y-69051529D01*
X135162598Y-69001097D01*
X135147826Y-68931654D01*
X135172942Y-68865248D01*
X135200294Y-68838641D01*
X135375328Y-68713792D01*
X135383200Y-68707139D01*
X135534052Y-68556812D01*
X135540730Y-68548965D01*
X135665003Y-68376020D01*
X135670313Y-68367183D01*
X135764670Y-68176267D01*
X135768469Y-68166672D01*
X135830377Y-67962910D01*
X135832555Y-67952837D01*
X135833986Y-67941962D01*
X135831775Y-67927778D01*
X135818617Y-67924000D01*
X133183225Y-67924000D01*
X133169694Y-67927973D01*
X133168257Y-67937966D01*
X133198565Y-68072446D01*
X133201645Y-68082275D01*
X133281770Y-68279603D01*
X133286413Y-68288794D01*
X133397694Y-68470388D01*
X133403777Y-68478699D01*
X133543213Y-68639667D01*
X133550580Y-68646883D01*
X133714434Y-68782916D01*
X133722881Y-68788831D01*
X133791969Y-68829203D01*
X133840693Y-68880842D01*
X133853764Y-68950625D01*
X133827033Y-69016396D01*
X133786584Y-69049752D01*
X133773607Y-69056507D01*
X133769474Y-69059610D01*
X133769471Y-69059612D01*
X133745247Y-69077800D01*
X133594965Y-69190635D01*
X133440629Y-69352138D01*
X133314743Y-69536680D01*
X133220688Y-69739305D01*
X133160989Y-69954570D01*
X133137251Y-70176695D01*
X123008500Y-70176695D01*
X123008500Y-53796695D01*
X133137251Y-53796695D01*
X133137548Y-53801848D01*
X133137548Y-53801851D01*
X133143011Y-53896590D01*
X133150110Y-54019715D01*
X133151247Y-54024761D01*
X133151248Y-54024767D01*
X133171119Y-54112939D01*
X133199222Y-54237639D01*
X133283266Y-54444616D01*
X133399987Y-54635088D01*
X133546250Y-54803938D01*
X133718126Y-54946632D01*
X133911000Y-55059338D01*
X134119692Y-55139030D01*
X134124760Y-55140061D01*
X134124763Y-55140062D01*
X134232017Y-55161883D01*
X134338597Y-55183567D01*
X134343772Y-55183757D01*
X134343774Y-55183757D01*
X134556673Y-55191564D01*
X134556677Y-55191564D01*
X134561837Y-55191753D01*
X134566957Y-55191097D01*
X134566959Y-55191097D01*
X134778288Y-55164025D01*
X134778289Y-55164025D01*
X134783416Y-55163368D01*
X134788366Y-55161883D01*
X134992429Y-55100661D01*
X134992434Y-55100659D01*
X134997384Y-55099174D01*
X135197994Y-55000896D01*
X135379860Y-54871173D01*
X135538096Y-54713489D01*
X135597594Y-54630689D01*
X135665435Y-54536277D01*
X135668453Y-54532077D01*
X135767430Y-54331811D01*
X135832370Y-54118069D01*
X135861529Y-53896590D01*
X135863156Y-53830000D01*
X135844852Y-53607361D01*
X135790431Y-53390702D01*
X135701354Y-53185840D01*
X135580014Y-52998277D01*
X135429670Y-52833051D01*
X135425619Y-52829852D01*
X135425615Y-52829848D01*
X135258414Y-52697800D01*
X135258410Y-52697798D01*
X135254359Y-52694598D01*
X135213053Y-52671796D01*
X135163084Y-52621364D01*
X135148312Y-52551921D01*
X135173428Y-52485516D01*
X135200780Y-52458909D01*
X135244603Y-52427650D01*
X135379860Y-52331173D01*
X135538096Y-52173489D01*
X135597594Y-52090689D01*
X135665435Y-51996277D01*
X135668453Y-51992077D01*
X135767430Y-51791811D01*
X135832370Y-51578069D01*
X135861529Y-51356590D01*
X135863156Y-51290000D01*
X135844852Y-51067361D01*
X135790431Y-50850702D01*
X135701354Y-50645840D01*
X135580014Y-50458277D01*
X135576532Y-50454450D01*
X135432798Y-50296488D01*
X135401746Y-50232642D01*
X135410141Y-50162143D01*
X135455317Y-50107375D01*
X135481761Y-50093706D01*
X135588297Y-50053767D01*
X135596705Y-50050615D01*
X135713261Y-49963261D01*
X135800615Y-49846705D01*
X135851745Y-49710316D01*
X135858500Y-49648134D01*
X135858500Y-47851866D01*
X135851745Y-47789684D01*
X135800615Y-47653295D01*
X135713261Y-47536739D01*
X135596705Y-47449385D01*
X135460316Y-47398255D01*
X135398134Y-47391500D01*
X133601866Y-47391500D01*
X133539684Y-47398255D01*
X133403295Y-47449385D01*
X133286739Y-47536739D01*
X133199385Y-47653295D01*
X133148255Y-47789684D01*
X133141500Y-47851866D01*
X133141500Y-49648134D01*
X133148255Y-49710316D01*
X133199385Y-49846705D01*
X133286739Y-49963261D01*
X133403295Y-50050615D01*
X133411704Y-50053767D01*
X133411705Y-50053768D01*
X133520451Y-50094535D01*
X133577216Y-50137176D01*
X133601916Y-50203738D01*
X133586709Y-50273087D01*
X133567316Y-50299568D01*
X133440629Y-50432138D01*
X133314743Y-50616680D01*
X133220688Y-50819305D01*
X133160989Y-51034570D01*
X133137251Y-51256695D01*
X133137548Y-51261848D01*
X133137548Y-51261851D01*
X133143011Y-51356590D01*
X133150110Y-51479715D01*
X133151247Y-51484761D01*
X133151248Y-51484767D01*
X133171119Y-51572939D01*
X133199222Y-51697639D01*
X133283266Y-51904616D01*
X133399987Y-52095088D01*
X133546250Y-52263938D01*
X133718126Y-52406632D01*
X133788595Y-52447811D01*
X133791445Y-52449476D01*
X133840169Y-52501114D01*
X133853240Y-52570897D01*
X133826509Y-52636669D01*
X133786055Y-52670027D01*
X133773607Y-52676507D01*
X133769474Y-52679610D01*
X133769471Y-52679612D01*
X133745247Y-52697800D01*
X133594965Y-52810635D01*
X133440629Y-52972138D01*
X133314743Y-53156680D01*
X133220688Y-53359305D01*
X133160989Y-53574570D01*
X133137251Y-53796695D01*
X123008500Y-53796695D01*
X123008500Y-44910535D01*
X123028502Y-44842414D01*
X123082158Y-44795921D01*
X123152432Y-44785817D01*
X123217012Y-44815311D01*
X123248508Y-44856887D01*
X123297438Y-44960869D01*
X123466568Y-45227375D01*
X123667767Y-45470582D01*
X123897860Y-45686654D01*
X124153221Y-45872184D01*
X124429821Y-46024247D01*
X124433490Y-46025700D01*
X124433495Y-46025702D01*
X124719628Y-46138990D01*
X124723298Y-46140443D01*
X125029025Y-46218940D01*
X125342179Y-46258500D01*
X125657821Y-46258500D01*
X125970975Y-46218940D01*
X126276702Y-46140443D01*
X126280372Y-46138990D01*
X126566505Y-46025702D01*
X126566510Y-46025700D01*
X126570179Y-46024247D01*
X126846779Y-45872184D01*
X127102140Y-45686654D01*
X127332233Y-45470582D01*
X127533432Y-45227375D01*
X127702562Y-44960869D01*
X127704246Y-44957290D01*
X127704250Y-44957283D01*
X127835267Y-44678856D01*
X127835269Y-44678852D01*
X127836956Y-44675266D01*
X127934495Y-44375072D01*
X127993641Y-44065020D01*
X128013460Y-43750000D01*
X127993641Y-43434980D01*
X127934495Y-43124928D01*
X127836956Y-42824734D01*
X127835267Y-42821144D01*
X127704250Y-42542717D01*
X127704246Y-42542710D01*
X127702562Y-42539131D01*
X127533432Y-42272625D01*
X127332233Y-42029418D01*
X127102140Y-41813346D01*
X126846779Y-41627816D01*
X126605033Y-41494914D01*
X126554974Y-41444569D01*
X126540081Y-41375152D01*
X126565082Y-41308703D01*
X126622039Y-41266319D01*
X126665734Y-41258500D01*
X142334266Y-41258500D01*
X142402387Y-41278502D01*
G37*
%TD.AperFunction*%
%TD*%
M02*
