%TF.GenerationSoftware,KiCad,Pcbnew,(6.0.7)*%
%TF.CreationDate,2023-12-15T10:10:15-08:00*%
%TF.ProjectId,NiceView-BKB-Mount,4e696365-5669-4657-972d-424b422d4d6f,rev?*%
%TF.SameCoordinates,Original*%
%TF.FileFunction,Legend,Top*%
%TF.FilePolarity,Positive*%
%FSLAX46Y46*%
G04 Gerber Fmt 4.6, Leading zero omitted, Abs format (unit mm)*
G04 Created by KiCad (PCBNEW (6.0.7)) date 2023-12-15 10:10:15*
%MOMM*%
%LPD*%
G01*
G04 APERTURE LIST*
%ADD10C,0.150000*%
%ADD11C,0.127000*%
%ADD12C,0.200000*%
%ADD13C,0.120000*%
G04 APERTURE END LIST*
D10*
X139943908Y-78998511D02*
X140078595Y-78931167D01*
X140246954Y-78762809D01*
X140280625Y-78661793D01*
X140280625Y-78594450D01*
X140246954Y-78493435D01*
X140179610Y-78426091D01*
X140078595Y-78392419D01*
X140011251Y-78392419D01*
X139910236Y-78426091D01*
X139741877Y-78527106D01*
X139640862Y-78560778D01*
X139573519Y-78560778D01*
X139472503Y-78527106D01*
X139405160Y-78459763D01*
X139371488Y-78358748D01*
X139371488Y-78291404D01*
X139405160Y-78190389D01*
X139573519Y-78022030D01*
X139708206Y-77954687D01*
X141021404Y-77853671D02*
X141021404Y-77921015D01*
X140954061Y-78055702D01*
X140886717Y-78123045D01*
X140752030Y-78190389D01*
X140617343Y-78190389D01*
X140516328Y-78156717D01*
X140347969Y-78055702D01*
X140246954Y-77954687D01*
X140145938Y-77786328D01*
X140112267Y-77685312D01*
X140112267Y-77550625D01*
X140179610Y-77415938D01*
X140246954Y-77348595D01*
X140381641Y-77281251D01*
X140448984Y-77281251D01*
X141324450Y-77617969D02*
X141459137Y-77550625D01*
X141627496Y-77382267D01*
X141661167Y-77281251D01*
X141661167Y-77213908D01*
X141627496Y-77112893D01*
X141560152Y-77045549D01*
X141459137Y-77011877D01*
X141391793Y-77011877D01*
X141290778Y-77045549D01*
X141122419Y-77146564D01*
X141021404Y-77180236D01*
X140954061Y-77180236D01*
X140853045Y-77146564D01*
X140785702Y-77079221D01*
X140752030Y-76978206D01*
X140752030Y-76910862D01*
X140785702Y-76809847D01*
X140954061Y-76641488D01*
X141088748Y-76574145D01*
X129598713Y-79221049D02*
X128891607Y-78513942D01*
X129632385Y-78783316D01*
X129363011Y-78042538D01*
X130070118Y-78749644D01*
X129834416Y-77571133D02*
X129969103Y-77436446D01*
X130070118Y-77402774D01*
X130204805Y-77402774D01*
X130373164Y-77503790D01*
X130608866Y-77739492D01*
X130709881Y-77907851D01*
X130709881Y-78042538D01*
X130676209Y-78143553D01*
X130541522Y-78278240D01*
X130440507Y-78311912D01*
X130305820Y-78311912D01*
X130137461Y-78210896D01*
X129901759Y-77975194D01*
X129800744Y-77806835D01*
X129800744Y-77672148D01*
X129834416Y-77571133D01*
X131080270Y-77672148D02*
X131214957Y-77604805D01*
X131383316Y-77436446D01*
X131416988Y-77335431D01*
X131416988Y-77268087D01*
X131383316Y-77167072D01*
X131315973Y-77099729D01*
X131214957Y-77066057D01*
X131147614Y-77066057D01*
X131046599Y-77099729D01*
X130878240Y-77200744D01*
X130777225Y-77234416D01*
X130709881Y-77234416D01*
X130608866Y-77200744D01*
X130541522Y-77133400D01*
X130507851Y-77032385D01*
X130507851Y-76965042D01*
X130541522Y-76864026D01*
X130709881Y-76695668D01*
X130844568Y-76628324D01*
X131821049Y-76998713D02*
X131113942Y-76291607D01*
X134147309Y-78228240D02*
X134585042Y-77790507D01*
X134618713Y-78295583D01*
X134719729Y-78194568D01*
X134820744Y-78160896D01*
X134888087Y-78160896D01*
X134989103Y-78194568D01*
X135157461Y-78362927D01*
X135191133Y-78463942D01*
X135191133Y-78531286D01*
X135157461Y-78632301D01*
X134955431Y-78834331D01*
X134854416Y-78868003D01*
X134787072Y-78868003D01*
X134787072Y-77588477D02*
X135729881Y-78059881D01*
X135258477Y-77117072D01*
X135426835Y-76948713D02*
X135864568Y-76510981D01*
X135898240Y-77016057D01*
X135999255Y-76915042D01*
X136100270Y-76881370D01*
X136167614Y-76881370D01*
X136268629Y-76915042D01*
X136436988Y-77083400D01*
X136470660Y-77184416D01*
X136470660Y-77251759D01*
X136436988Y-77352774D01*
X136234957Y-77554805D01*
X136133942Y-77588477D01*
X136066599Y-77588477D01*
X132120862Y-79191557D02*
X132255549Y-79124213D01*
X132423908Y-78955854D01*
X132457580Y-78854839D01*
X132457580Y-78787496D01*
X132423908Y-78686480D01*
X132356564Y-78619137D01*
X132255549Y-78585465D01*
X132188206Y-78585465D01*
X132087190Y-78619137D01*
X131918832Y-78720152D01*
X131817816Y-78753824D01*
X131750473Y-78753824D01*
X131649458Y-78720152D01*
X131582114Y-78652809D01*
X131548442Y-78551793D01*
X131548442Y-78484450D01*
X131582114Y-78383435D01*
X131750473Y-78215076D01*
X131885160Y-78147732D01*
X133198358Y-78046717D02*
X133198358Y-78114061D01*
X133131015Y-78248748D01*
X133063671Y-78316091D01*
X132928984Y-78383435D01*
X132794297Y-78383435D01*
X132693282Y-78349763D01*
X132524923Y-78248748D01*
X132423908Y-78147732D01*
X132322893Y-77979374D01*
X132289221Y-77878358D01*
X132289221Y-77743671D01*
X132356564Y-77608984D01*
X132423908Y-77541641D01*
X132558595Y-77474297D01*
X132625938Y-77474297D01*
X133905465Y-77474297D02*
X133568748Y-77811015D01*
X132861641Y-77103908D01*
X134141167Y-77238595D02*
X133434061Y-76531488D01*
X134545228Y-76834534D02*
X133838122Y-76733519D01*
X133838122Y-76127427D02*
X133838122Y-76935549D01*
X137127698Y-78115194D02*
X137026683Y-78148866D01*
X136925668Y-78249881D01*
X136858324Y-78384568D01*
X136858324Y-78519255D01*
X136891996Y-78620270D01*
X136993011Y-78788629D01*
X137094026Y-78889644D01*
X137262385Y-78990660D01*
X137363400Y-79024331D01*
X137498087Y-79024331D01*
X137632774Y-78956988D01*
X137700118Y-78889644D01*
X137767461Y-78754957D01*
X137767461Y-78687614D01*
X137531759Y-78451912D01*
X137397072Y-78586599D01*
X138137851Y-78451912D02*
X137430744Y-77744805D01*
X138541912Y-78047851D01*
X137834805Y-77340744D01*
X138878629Y-77711133D02*
X138171522Y-77004026D01*
X138339881Y-76835668D01*
X138474568Y-76768324D01*
X138609255Y-76768324D01*
X138710270Y-76801996D01*
X138878629Y-76903011D01*
X138979644Y-77004026D01*
X139080660Y-77172385D01*
X139114331Y-77273400D01*
X139114331Y-77408087D01*
X139046988Y-77542774D01*
X138878629Y-77711133D01*
D11*
%TO.C,PWR_SW1*%
X133400000Y-84950000D02*
X124600000Y-84950000D01*
X124600000Y-89550000D02*
X133400000Y-89550000D01*
X133400000Y-84950000D02*
X133400000Y-85700000D01*
X124600000Y-84950000D02*
X124600000Y-85700000D01*
X133400000Y-89550000D02*
X133400000Y-88800000D01*
X124600000Y-89550000D02*
X124600000Y-88800000D01*
D12*
X131100000Y-85450000D02*
G75*
G03*
X131100000Y-85450000I-100000J0D01*
G01*
D13*
%TO.C,Nice!View1*%
X138310000Y-82080000D02*
X128090000Y-82080000D01*
X140910000Y-79420000D02*
X140910000Y-80750000D01*
X138310000Y-79420000D02*
X138310000Y-82080000D01*
X139580000Y-79420000D02*
X140910000Y-79420000D01*
X128090000Y-79420000D02*
X128090000Y-82080000D01*
X138310000Y-79420000D02*
X128090000Y-79420000D01*
%TO.C,ControllerInput1*%
X135830000Y-74080000D02*
X134500000Y-74080000D01*
X135830000Y-72750000D02*
X135830000Y-74080000D01*
X135830000Y-71480000D02*
X133170000Y-71480000D01*
X135830000Y-71480000D02*
X135830000Y-58720000D01*
X133170000Y-71480000D02*
X133170000Y-58720000D01*
X135830000Y-58720000D02*
X133170000Y-58720000D01*
%TO.C,PWR_Connectors1*%
X135830000Y-50020000D02*
X135830000Y-55160000D01*
X133170000Y-48750000D02*
X133170000Y-47420000D01*
X133170000Y-50020000D02*
X133170000Y-55160000D01*
X133170000Y-47420000D02*
X134500000Y-47420000D01*
X133170000Y-55160000D02*
X135830000Y-55160000D01*
X133170000Y-50020000D02*
X135830000Y-50020000D01*
D11*
%TO.C,PWR_SW2*%
X144400000Y-84950000D02*
X135600000Y-84950000D01*
X144400000Y-84950000D02*
X144400000Y-85700000D01*
X135600000Y-84950000D02*
X135600000Y-85700000D01*
X135600000Y-89550000D02*
X144400000Y-89550000D01*
X144400000Y-89550000D02*
X144400000Y-88800000D01*
X135600000Y-89550000D02*
X135600000Y-88800000D01*
D12*
X138100000Y-88850000D02*
G75*
G03*
X138100000Y-88850000I-100000J0D01*
G01*
%TD*%
M02*
