%TF.GenerationSoftware,KiCad,Pcbnew,(6.0.7)*%
%TF.CreationDate,2023-12-15T10:10:15-08:00*%
%TF.ProjectId,NiceView-BKB-Mount,4e696365-5669-4657-972d-424b422d4d6f,rev?*%
%TF.SameCoordinates,Original*%
%TF.FileFunction,Legend,Bot*%
%TF.FilePolarity,Positive*%
%FSLAX46Y46*%
G04 Gerber Fmt 4.6, Leading zero omitted, Abs format (unit mm)*
G04 Created by KiCad (PCBNEW (6.0.7)) date 2023-12-15 10:10:15*
%MOMM*%
%LPD*%
G01*
G04 APERTURE LIST*
%ADD10C,0.125000*%
%ADD11C,0.150000*%
%ADD12C,0.120000*%
G04 APERTURE END LIST*
D10*
X131560000Y-86156190D02*
X131560000Y-85656190D01*
X131321904Y-86156190D02*
X131321904Y-85656190D01*
X131036190Y-86156190D01*
X131036190Y-85656190D01*
X130536190Y-86156190D02*
X130821904Y-86156190D01*
X130679047Y-86156190D02*
X130679047Y-85656190D01*
X130726666Y-85727619D01*
X130774285Y-85775238D01*
X130821904Y-85799047D01*
X129306124Y-85660564D02*
X129210885Y-85660564D01*
X129163266Y-85684374D01*
X129115647Y-85731993D01*
X129091838Y-85827231D01*
X129091838Y-85993897D01*
X129115647Y-86089135D01*
X129163266Y-86136754D01*
X129210885Y-86160564D01*
X129306124Y-86160564D01*
X129353743Y-86136754D01*
X129401362Y-86089135D01*
X129425171Y-85993897D01*
X129425171Y-85827231D01*
X129401362Y-85731993D01*
X129353743Y-85684374D01*
X129306124Y-85660564D01*
X128877552Y-85660564D02*
X128877552Y-86065326D01*
X128853743Y-86112945D01*
X128829933Y-86136754D01*
X128782314Y-86160564D01*
X128687076Y-86160564D01*
X128639457Y-86136754D01*
X128615647Y-86112945D01*
X128591838Y-86065326D01*
X128591838Y-85660564D01*
X128425171Y-85660564D02*
X128139457Y-85660564D01*
X128282314Y-86160564D02*
X128282314Y-85660564D01*
X140470000Y-85736190D02*
X140374761Y-85736190D01*
X140327142Y-85760000D01*
X140279523Y-85807619D01*
X140255714Y-85902857D01*
X140255714Y-86069523D01*
X140279523Y-86164761D01*
X140327142Y-86212380D01*
X140374761Y-86236190D01*
X140470000Y-86236190D01*
X140517619Y-86212380D01*
X140565238Y-86164761D01*
X140589047Y-86069523D01*
X140589047Y-85902857D01*
X140565238Y-85807619D01*
X140517619Y-85760000D01*
X140470000Y-85736190D01*
X140041428Y-85736190D02*
X140041428Y-86140952D01*
X140017619Y-86188571D01*
X139993809Y-86212380D01*
X139946190Y-86236190D01*
X139850952Y-86236190D01*
X139803333Y-86212380D01*
X139779523Y-86188571D01*
X139755714Y-86140952D01*
X139755714Y-85736190D01*
X139589047Y-85736190D02*
X139303333Y-85736190D01*
X139446190Y-86236190D02*
X139446190Y-85736190D01*
D11*
X132790476Y-70824761D02*
X132647619Y-70872380D01*
X132409523Y-70872380D01*
X132314285Y-70824761D01*
X132266666Y-70777142D01*
X132219047Y-70681904D01*
X132219047Y-70586666D01*
X132266666Y-70491428D01*
X132314285Y-70443809D01*
X132409523Y-70396190D01*
X132600000Y-70348571D01*
X132695238Y-70300952D01*
X132742857Y-70253333D01*
X132790476Y-70158095D01*
X132790476Y-70062857D01*
X132742857Y-69967619D01*
X132695238Y-69920000D01*
X132600000Y-69872380D01*
X132361904Y-69872380D01*
X132219047Y-69920000D01*
X131219047Y-70777142D02*
X131266666Y-70824761D01*
X131409523Y-70872380D01*
X131504761Y-70872380D01*
X131647619Y-70824761D01*
X131742857Y-70729523D01*
X131790476Y-70634285D01*
X131838095Y-70443809D01*
X131838095Y-70300952D01*
X131790476Y-70110476D01*
X131742857Y-70015238D01*
X131647619Y-69920000D01*
X131504761Y-69872380D01*
X131409523Y-69872380D01*
X131266666Y-69920000D01*
X131219047Y-69967619D01*
X130314285Y-70872380D02*
X130790476Y-70872380D01*
X130790476Y-69872380D01*
X129980952Y-70872380D02*
X129980952Y-69872380D01*
X129409523Y-70872380D02*
X129838095Y-70300952D01*
X129409523Y-69872380D02*
X129980952Y-70443809D01*
X132200000Y-50742380D02*
X132009523Y-50742380D01*
X131914285Y-50790000D01*
X131819047Y-50885238D01*
X131771428Y-51075714D01*
X131771428Y-51409047D01*
X131819047Y-51599523D01*
X131914285Y-51694761D01*
X132009523Y-51742380D01*
X132200000Y-51742380D01*
X132295238Y-51694761D01*
X132390476Y-51599523D01*
X132438095Y-51409047D01*
X132438095Y-51075714D01*
X132390476Y-50885238D01*
X132295238Y-50790000D01*
X132200000Y-50742380D01*
X131342857Y-50742380D02*
X131342857Y-51551904D01*
X131295238Y-51647142D01*
X131247619Y-51694761D01*
X131152380Y-51742380D01*
X130961904Y-51742380D01*
X130866666Y-51694761D01*
X130819047Y-51647142D01*
X130771428Y-51551904D01*
X130771428Y-50742380D01*
X130438095Y-50742380D02*
X129866666Y-50742380D01*
X130152380Y-51742380D02*
X130152380Y-50742380D01*
X131437619Y-60572380D02*
X131770952Y-60096190D01*
X132009047Y-60572380D02*
X132009047Y-59572380D01*
X131628095Y-59572380D01*
X131532857Y-59620000D01*
X131485238Y-59667619D01*
X131437619Y-59762857D01*
X131437619Y-59905714D01*
X131485238Y-60000952D01*
X131532857Y-60048571D01*
X131628095Y-60096190D01*
X132009047Y-60096190D01*
X131056666Y-60524761D02*
X130913809Y-60572380D01*
X130675714Y-60572380D01*
X130580476Y-60524761D01*
X130532857Y-60477142D01*
X130485238Y-60381904D01*
X130485238Y-60286666D01*
X130532857Y-60191428D01*
X130580476Y-60143809D01*
X130675714Y-60096190D01*
X130866190Y-60048571D01*
X130961428Y-60000952D01*
X131009047Y-59953333D01*
X131056666Y-59858095D01*
X131056666Y-59762857D01*
X131009047Y-59667619D01*
X130961428Y-59620000D01*
X130866190Y-59572380D01*
X130628095Y-59572380D01*
X130485238Y-59620000D01*
X130199523Y-59572380D02*
X129628095Y-59572380D01*
X129913809Y-60572380D02*
X129913809Y-59572380D01*
X132458095Y-67332380D02*
X131839047Y-67332380D01*
X132172380Y-67713333D01*
X132029523Y-67713333D01*
X131934285Y-67760952D01*
X131886666Y-67808571D01*
X131839047Y-67903809D01*
X131839047Y-68141904D01*
X131886666Y-68237142D01*
X131934285Y-68284761D01*
X132029523Y-68332380D01*
X132315238Y-68332380D01*
X132410476Y-68284761D01*
X132458095Y-68237142D01*
X131553333Y-67332380D02*
X131220000Y-68332380D01*
X130886666Y-67332380D01*
X130648571Y-67332380D02*
X130029523Y-67332380D01*
X130362857Y-67713333D01*
X130220000Y-67713333D01*
X130124761Y-67760952D01*
X130077142Y-67808571D01*
X130029523Y-67903809D01*
X130029523Y-68141904D01*
X130077142Y-68237142D01*
X130124761Y-68284761D01*
X130220000Y-68332380D01*
X130505714Y-68332380D01*
X130600952Y-68284761D01*
X130648571Y-68237142D01*
X132431904Y-63074761D02*
X132289047Y-63122380D01*
X132050952Y-63122380D01*
X131955714Y-63074761D01*
X131908095Y-63027142D01*
X131860476Y-62931904D01*
X131860476Y-62836666D01*
X131908095Y-62741428D01*
X131955714Y-62693809D01*
X132050952Y-62646190D01*
X132241428Y-62598571D01*
X132336666Y-62550952D01*
X132384285Y-62503333D01*
X132431904Y-62408095D01*
X132431904Y-62312857D01*
X132384285Y-62217619D01*
X132336666Y-62170000D01*
X132241428Y-62122380D01*
X132003333Y-62122380D01*
X131860476Y-62170000D01*
X130860476Y-63027142D02*
X130908095Y-63074761D01*
X131050952Y-63122380D01*
X131146190Y-63122380D01*
X131289047Y-63074761D01*
X131384285Y-62979523D01*
X131431904Y-62884285D01*
X131479523Y-62693809D01*
X131479523Y-62550952D01*
X131431904Y-62360476D01*
X131384285Y-62265238D01*
X131289047Y-62170000D01*
X131146190Y-62122380D01*
X131050952Y-62122380D01*
X130908095Y-62170000D01*
X130860476Y-62217619D01*
X130479523Y-63074761D02*
X130336666Y-63122380D01*
X130098571Y-63122380D01*
X130003333Y-63074761D01*
X129955714Y-63027142D01*
X129908095Y-62931904D01*
X129908095Y-62836666D01*
X129955714Y-62741428D01*
X130003333Y-62693809D01*
X130098571Y-62646190D01*
X130289047Y-62598571D01*
X130384285Y-62550952D01*
X130431904Y-62503333D01*
X130479523Y-62408095D01*
X130479523Y-62312857D01*
X130431904Y-62217619D01*
X130384285Y-62170000D01*
X130289047Y-62122380D01*
X130050952Y-62122380D01*
X129908095Y-62170000D01*
D10*
X138240000Y-86226190D02*
X138240000Y-85726190D01*
X138001904Y-86226190D02*
X138001904Y-85726190D01*
X137716190Y-86226190D01*
X137716190Y-85726190D01*
X137216190Y-86226190D02*
X137501904Y-86226190D01*
X137359047Y-86226190D02*
X137359047Y-85726190D01*
X137406666Y-85797619D01*
X137454285Y-85845238D01*
X137501904Y-85869047D01*
D11*
X132390000Y-54212380D02*
X132390000Y-53212380D01*
X131913809Y-54212380D02*
X131913809Y-53212380D01*
X131342380Y-54212380D01*
X131342380Y-53212380D01*
X130913809Y-53307619D02*
X130866190Y-53260000D01*
X130770952Y-53212380D01*
X130532857Y-53212380D01*
X130437619Y-53260000D01*
X130390000Y-53307619D01*
X130342380Y-53402857D01*
X130342380Y-53498095D01*
X130390000Y-53640952D01*
X130961428Y-54212380D01*
X130342380Y-54212380D01*
X132001904Y-64800000D02*
X132097142Y-64752380D01*
X132240000Y-64752380D01*
X132382857Y-64800000D01*
X132478095Y-64895238D01*
X132525714Y-64990476D01*
X132573333Y-65180952D01*
X132573333Y-65323809D01*
X132525714Y-65514285D01*
X132478095Y-65609523D01*
X132382857Y-65704761D01*
X132240000Y-65752380D01*
X132144761Y-65752380D01*
X132001904Y-65704761D01*
X131954285Y-65657142D01*
X131954285Y-65323809D01*
X132144761Y-65323809D01*
X131525714Y-65752380D02*
X131525714Y-64752380D01*
X130954285Y-65752380D01*
X130954285Y-64752380D01*
X130478095Y-65752380D02*
X130478095Y-64752380D01*
X130240000Y-64752380D01*
X130097142Y-64800000D01*
X130001904Y-64895238D01*
X129954285Y-64990476D01*
X129906666Y-65180952D01*
X129906666Y-65323809D01*
X129954285Y-65514285D01*
X130001904Y-65609523D01*
X130097142Y-65704761D01*
X130240000Y-65752380D01*
X130478095Y-65752380D01*
X132811428Y-73402380D02*
X132811428Y-72402380D01*
X132478095Y-73116666D01*
X132144761Y-72402380D01*
X132144761Y-73402380D01*
X131478095Y-72402380D02*
X131287619Y-72402380D01*
X131192380Y-72450000D01*
X131097142Y-72545238D01*
X131049523Y-72735714D01*
X131049523Y-73069047D01*
X131097142Y-73259523D01*
X131192380Y-73354761D01*
X131287619Y-73402380D01*
X131478095Y-73402380D01*
X131573333Y-73354761D01*
X131668571Y-73259523D01*
X131716190Y-73069047D01*
X131716190Y-72735714D01*
X131668571Y-72545238D01*
X131573333Y-72450000D01*
X131478095Y-72402380D01*
X130668571Y-73354761D02*
X130525714Y-73402380D01*
X130287619Y-73402380D01*
X130192380Y-73354761D01*
X130144761Y-73307142D01*
X130097142Y-73211904D01*
X130097142Y-73116666D01*
X130144761Y-73021428D01*
X130192380Y-72973809D01*
X130287619Y-72926190D01*
X130478095Y-72878571D01*
X130573333Y-72830952D01*
X130620952Y-72783333D01*
X130668571Y-72688095D01*
X130668571Y-72592857D01*
X130620952Y-72497619D01*
X130573333Y-72450000D01*
X130478095Y-72402380D01*
X130240000Y-72402380D01*
X130097142Y-72450000D01*
X129668571Y-73402380D02*
X129668571Y-72402380D01*
X132410000Y-49092380D02*
X132410000Y-48092380D01*
X131933809Y-49092380D02*
X131933809Y-48092380D01*
X131362380Y-49092380D01*
X131362380Y-48092380D01*
X130362380Y-49092380D02*
X130933809Y-49092380D01*
X130648095Y-49092380D02*
X130648095Y-48092380D01*
X130743333Y-48235238D01*
X130838571Y-48330476D01*
X130933809Y-48378095D01*
D12*
%TO.C,Nice!View1*%
X130680000Y-82080000D02*
X140900000Y-82080000D01*
X130680000Y-79420000D02*
X140900000Y-79420000D01*
X130680000Y-79420000D02*
X130680000Y-82080000D01*
X140900000Y-79420000D02*
X140900000Y-82080000D01*
X129410000Y-79420000D02*
X128080000Y-79420000D01*
X128080000Y-79420000D02*
X128080000Y-80750000D01*
%TD*%
M02*
