%TF.GenerationSoftware,KiCad,Pcbnew,(6.0.7)*%
%TF.CreationDate,2023-12-15T10:10:15-08:00*%
%TF.ProjectId,NiceView-BKB-Mount,4e696365-5669-4657-972d-424b422d4d6f,rev?*%
%TF.SameCoordinates,Original*%
%TF.FileFunction,Copper,L2,Bot*%
%TF.FilePolarity,Positive*%
%FSLAX46Y46*%
G04 Gerber Fmt 4.6, Leading zero omitted, Abs format (unit mm)*
G04 Created by KiCad (PCBNEW (6.0.7)) date 2023-12-15 10:10:15*
%MOMM*%
%LPD*%
G01*
G04 APERTURE LIST*
%TA.AperFunction,ComponentPad*%
%ADD10C,4.000000*%
%TD*%
%TA.AperFunction,ComponentPad*%
%ADD11R,1.308000X1.308000*%
%TD*%
%TA.AperFunction,ComponentPad*%
%ADD12C,1.308000*%
%TD*%
%TA.AperFunction,ComponentPad*%
%ADD13O,1.230000X2.460000*%
%TD*%
%TA.AperFunction,ComponentPad*%
%ADD14C,1.397000*%
%TD*%
%TA.AperFunction,ComponentPad*%
%ADD15R,1.700000X1.700000*%
%TD*%
%TA.AperFunction,ComponentPad*%
%ADD16O,1.700000X1.700000*%
%TD*%
%TA.AperFunction,Conductor*%
%ADD17C,0.250000*%
%TD*%
G04 APERTURE END LIST*
D10*
%TO.P,TH1,*%
%TO.N,*%
X125500000Y-43750000D03*
%TD*%
D11*
%TO.P,PWR_SW1,1,A*%
%TO.N,BATT_P_IN1*%
X131000000Y-87250000D03*
D12*
%TO.P,PWR_SW1,2,B*%
%TO.N,BATT_P_OUT*%
X129000000Y-87250000D03*
%TO.P,PWR_SW1,3,C*%
%TO.N,BATT_P_IN2*%
X127000000Y-87250000D03*
D13*
%TO.P,PWR_SW1,S1*%
%TO.N,N/C*%
X133200000Y-87250000D03*
%TO.P,PWR_SW1,S2*%
X124800000Y-87250000D03*
%TD*%
D14*
%TO.P,Nice!View1,1,Pin_1*%
%TO.N,MOSI*%
X129420000Y-80750000D03*
%TO.P,Nice!View1,2,Pin_2*%
%TO.N,SCLK*%
X131960000Y-80750000D03*
%TO.P,Nice!View1,3,Pin_3*%
%TO.N,3V3*%
X134500000Y-80750000D03*
%TO.P,Nice!View1,4,Pin_4*%
%TO.N,GND*%
X137040000Y-80750000D03*
%TO.P,Nice!View1,5,Pin_5*%
%TO.N,SCS*%
X139580000Y-80750000D03*
%TD*%
D15*
%TO.P,ControllerInput1,1,Pin_1*%
%TO.N,MOSI*%
X134500000Y-72750000D03*
D16*
%TO.P,ControllerInput1,2,Pin_2*%
%TO.N,SCLK*%
X134500000Y-70210000D03*
%TO.P,ControllerInput1,3,Pin_3*%
%TO.N,3V3*%
X134500000Y-67670000D03*
%TO.P,ControllerInput1,4,Pin_4*%
%TO.N,GND*%
X134500000Y-65130000D03*
%TO.P,ControllerInput1,5,Pin_5*%
%TO.N,SCS*%
X134500000Y-62590000D03*
%TO.P,ControllerInput1,6,Pin_6*%
%TO.N,RST*%
X134500000Y-60050000D03*
%TD*%
D10*
%TO.P,TH1,*%
%TO.N,*%
X143500000Y-43750000D03*
%TD*%
D15*
%TO.P,PWR_Connectors1,1,Pin_1*%
%TO.N,BATT_P_IN1*%
X134500000Y-48750000D03*
D16*
%TO.P,PWR_Connectors1,2,Pin_2*%
%TO.N,BATT_P_OUT*%
X134500000Y-51290000D03*
%TO.P,PWR_Connectors1,3,Pin_3*%
%TO.N,BATT_P_IN2*%
X134500000Y-53830000D03*
%TD*%
D10*
%TO.P,TH1,*%
%TO.N,*%
X143500000Y-92750000D03*
%TD*%
D11*
%TO.P,PWR_SW2,1,A*%
%TO.N,BATT_P_IN1*%
X138000000Y-87250000D03*
D12*
%TO.P,PWR_SW2,2,B*%
%TO.N,BATT_P_OUT*%
X140000000Y-87250000D03*
%TO.P,PWR_SW2,3,C*%
%TO.N,BATT_P_IN2*%
X142000000Y-87250000D03*
D13*
%TO.P,PWR_SW2,S1*%
%TO.N,N/C*%
X135800000Y-87250000D03*
%TO.P,PWR_SW2,S2*%
X144200000Y-87250000D03*
%TD*%
D10*
%TO.P,TH1,*%
%TO.N,*%
X125500000Y-92750000D03*
%TD*%
D17*
%TO.N,MOSI*%
X129420000Y-77830000D02*
X134500000Y-72750000D01*
X129420000Y-80750000D02*
X129420000Y-77830000D01*
%TO.N,SCLK*%
X136600000Y-70500000D02*
X136310000Y-70210000D01*
X133500000Y-74900000D02*
X136500000Y-74900000D01*
X136500000Y-74900000D02*
X136600000Y-74800000D01*
X136310000Y-70210000D02*
X134500000Y-70210000D01*
X136600000Y-74800000D02*
X136600000Y-70500000D01*
X131960000Y-76440000D02*
X133500000Y-74900000D01*
X131960000Y-80750000D02*
X131960000Y-76440000D01*
%TO.N,3V3*%
X135870000Y-67670000D02*
X134500000Y-67670000D01*
X137100000Y-68900000D02*
X135870000Y-67670000D01*
X134500000Y-80750000D02*
X134500000Y-77000000D01*
X135500000Y-77000000D02*
X137100000Y-75400000D01*
X134500000Y-77000000D02*
X135500000Y-77000000D01*
X137100000Y-75400000D02*
X137100000Y-68900000D01*
%TO.N,GND*%
X137700000Y-67400000D02*
X135430000Y-65130000D01*
X137040000Y-79560000D02*
X137700000Y-78900000D01*
X137040000Y-80750000D02*
X137040000Y-79560000D01*
X137700000Y-78900000D02*
X137700000Y-67400000D01*
X135430000Y-65130000D02*
X134500000Y-65130000D01*
%TO.N,SCS*%
X138500000Y-66590000D02*
X134500000Y-62590000D01*
X139580000Y-78280000D02*
X138500000Y-77200000D01*
X138500000Y-77200000D02*
X138500000Y-66590000D01*
X139580000Y-80750000D02*
X139580000Y-78280000D01*
%TO.N,BATT_P_IN1*%
X131000000Y-87250000D02*
X126492000Y-82742000D01*
X132555000Y-88805000D02*
X136445000Y-88805000D01*
X136445000Y-88805000D02*
X138000000Y-87250000D01*
X126492000Y-56758000D02*
X134500000Y-48750000D01*
X126492000Y-82742000D02*
X126492000Y-56758000D01*
X131000000Y-87250000D02*
X132555000Y-88805000D01*
%TO.N,BATT_P_OUT*%
X127254000Y-58536000D02*
X134500000Y-51290000D01*
X140000000Y-83866000D02*
X138938000Y-82804000D01*
X129160000Y-87250000D02*
X131165000Y-89255000D01*
X137995000Y-89255000D02*
X140000000Y-87250000D01*
X129000000Y-87250000D02*
X129160000Y-87250000D01*
X140000000Y-87250000D02*
X140000000Y-83866000D01*
X131165000Y-89255000D02*
X137995000Y-89255000D01*
X127254000Y-82804000D02*
X127254000Y-58536000D01*
X138938000Y-82804000D02*
X127254000Y-82804000D01*
%TO.N,BATT_P_IN2*%
X142000000Y-61330000D02*
X134500000Y-53830000D01*
X129412000Y-89662000D02*
X130935604Y-89662000D01*
X142000000Y-87250000D02*
X142000000Y-61330000D01*
X127000000Y-87250000D02*
X129412000Y-89662000D01*
X130978604Y-89705000D02*
X139545000Y-89705000D01*
X139545000Y-89705000D02*
X142000000Y-87250000D01*
X130935604Y-89662000D02*
X130978604Y-89705000D01*
%TD*%
%TA.AperFunction,Conductor*%
%TO.N,3V3*%
G36*
X133058146Y-53731924D02*
G01*
X133114982Y-53774471D01*
X133139905Y-53842727D01*
X133150110Y-54019715D01*
X133151247Y-54024761D01*
X133151248Y-54024767D01*
X133171119Y-54112939D01*
X133199222Y-54237639D01*
X133283266Y-54444616D01*
X133399987Y-54635088D01*
X133546250Y-54803938D01*
X133718126Y-54946632D01*
X133911000Y-55059338D01*
X134119692Y-55139030D01*
X134124760Y-55140061D01*
X134124763Y-55140062D01*
X134232012Y-55161882D01*
X134338597Y-55183567D01*
X134343772Y-55183757D01*
X134343774Y-55183757D01*
X134556673Y-55191564D01*
X134556677Y-55191564D01*
X134561837Y-55191753D01*
X134566957Y-55191097D01*
X134566959Y-55191097D01*
X134778288Y-55164025D01*
X134778289Y-55164025D01*
X134783416Y-55163368D01*
X134788367Y-55161883D01*
X134788370Y-55161882D01*
X134829829Y-55149444D01*
X134900825Y-55149028D01*
X134955131Y-55181035D01*
X141329595Y-61555499D01*
X141363621Y-61617811D01*
X141366500Y-61644594D01*
X141366500Y-86203633D01*
X141346498Y-86271754D01*
X141315743Y-86304316D01*
X141313772Y-86305489D01*
X141153140Y-86446360D01*
X141149565Y-86450895D01*
X141149564Y-86450896D01*
X141099557Y-86514330D01*
X141041676Y-86555443D01*
X140970756Y-86558737D01*
X140909313Y-86523166D01*
X140899649Y-86511712D01*
X140871064Y-86473431D01*
X140871057Y-86473424D01*
X140867607Y-86468803D01*
X140848240Y-86450900D01*
X140714957Y-86327695D01*
X140714954Y-86327693D01*
X140710717Y-86323776D01*
X140705838Y-86320698D01*
X140705836Y-86320696D01*
X140695947Y-86314457D01*
X140692265Y-86312134D01*
X140645327Y-86258869D01*
X140633500Y-86205572D01*
X140633500Y-83944767D01*
X140634027Y-83933584D01*
X140635702Y-83926091D01*
X140633562Y-83858000D01*
X140633500Y-83854043D01*
X140633500Y-83826144D01*
X140632996Y-83822153D01*
X140632063Y-83810311D01*
X140630923Y-83774036D01*
X140630674Y-83766111D01*
X140628462Y-83758497D01*
X140628461Y-83758492D01*
X140625023Y-83746659D01*
X140621012Y-83727295D01*
X140619467Y-83715064D01*
X140618474Y-83707203D01*
X140615557Y-83699836D01*
X140615556Y-83699831D01*
X140602198Y-83666092D01*
X140598354Y-83654865D01*
X140588230Y-83620022D01*
X140586018Y-83612407D01*
X140575707Y-83594972D01*
X140567012Y-83577224D01*
X140559552Y-83558383D01*
X140533564Y-83522613D01*
X140527048Y-83512693D01*
X140508580Y-83481465D01*
X140508578Y-83481462D01*
X140504542Y-83474638D01*
X140490221Y-83460317D01*
X140477380Y-83445283D01*
X140465472Y-83428893D01*
X140431395Y-83400702D01*
X140422616Y-83392712D01*
X139441652Y-82411747D01*
X139434112Y-82403461D01*
X139430000Y-82396982D01*
X139380348Y-82350356D01*
X139377507Y-82347602D01*
X139357770Y-82327865D01*
X139354573Y-82325385D01*
X139345551Y-82317680D01*
X139319100Y-82292841D01*
X139313321Y-82287414D01*
X139306375Y-82283595D01*
X139306372Y-82283593D01*
X139295566Y-82277652D01*
X139279047Y-82266801D01*
X139278583Y-82266441D01*
X139263041Y-82254386D01*
X139255772Y-82251241D01*
X139255768Y-82251238D01*
X139222463Y-82236826D01*
X139211813Y-82231609D01*
X139173060Y-82210305D01*
X139153437Y-82205267D01*
X139134734Y-82198863D01*
X139123420Y-82193967D01*
X139123419Y-82193967D01*
X139116145Y-82190819D01*
X139108322Y-82189580D01*
X139108312Y-82189577D01*
X139072476Y-82183901D01*
X139060856Y-82181495D01*
X139025711Y-82172472D01*
X139025710Y-82172472D01*
X139018030Y-82170500D01*
X138997776Y-82170500D01*
X138978065Y-82168949D01*
X138965886Y-82167020D01*
X138958057Y-82165780D01*
X138950165Y-82166526D01*
X138914039Y-82169941D01*
X138902181Y-82170500D01*
X137359180Y-82170500D01*
X137291059Y-82150498D01*
X137244566Y-82096842D01*
X137234462Y-82026568D01*
X137263956Y-81961988D01*
X137326569Y-81922793D01*
X137449085Y-81889965D01*
X137449087Y-81889964D01*
X137454395Y-81888542D01*
X137459377Y-81886219D01*
X137640819Y-81801612D01*
X137640824Y-81801609D01*
X137645806Y-81799286D01*
X137650315Y-81796129D01*
X137814298Y-81681307D01*
X137814301Y-81681305D01*
X137818809Y-81678148D01*
X137968148Y-81528809D01*
X138089286Y-81355805D01*
X138178542Y-81164395D01*
X138179966Y-81159083D01*
X138188293Y-81128004D01*
X138225245Y-81067381D01*
X138289106Y-81036360D01*
X138359600Y-81044788D01*
X138414347Y-81089991D01*
X138431707Y-81128004D01*
X138440035Y-81159083D01*
X138441458Y-81164395D01*
X138530714Y-81355805D01*
X138651852Y-81528809D01*
X138801191Y-81678148D01*
X138805699Y-81681305D01*
X138805702Y-81681307D01*
X138969685Y-81796129D01*
X138974194Y-81799286D01*
X138979176Y-81801609D01*
X138979181Y-81801612D01*
X139160623Y-81886219D01*
X139165605Y-81888542D01*
X139170913Y-81889964D01*
X139170915Y-81889965D01*
X139364291Y-81941780D01*
X139364293Y-81941780D01*
X139369606Y-81943204D01*
X139580000Y-81961611D01*
X139790394Y-81943204D01*
X139795707Y-81941780D01*
X139795709Y-81941780D01*
X139989085Y-81889965D01*
X139989087Y-81889964D01*
X139994395Y-81888542D01*
X139999377Y-81886219D01*
X140180819Y-81801612D01*
X140180824Y-81801609D01*
X140185806Y-81799286D01*
X140190315Y-81796129D01*
X140354298Y-81681307D01*
X140354301Y-81681305D01*
X140358809Y-81678148D01*
X140508148Y-81528809D01*
X140629286Y-81355805D01*
X140718542Y-81164395D01*
X140719966Y-81159083D01*
X140771780Y-80965709D01*
X140771780Y-80965707D01*
X140773204Y-80960394D01*
X140791611Y-80750000D01*
X140773204Y-80539606D01*
X140730762Y-80381210D01*
X140719965Y-80340915D01*
X140719964Y-80340913D01*
X140718542Y-80335605D01*
X140629286Y-80144195D01*
X140508148Y-79971191D01*
X140358809Y-79821852D01*
X140267230Y-79757728D01*
X140222901Y-79702271D01*
X140213500Y-79654515D01*
X140213500Y-78358768D01*
X140214027Y-78347585D01*
X140215702Y-78340092D01*
X140213562Y-78272001D01*
X140213500Y-78268044D01*
X140213500Y-78240144D01*
X140212996Y-78236153D01*
X140212063Y-78224311D01*
X140210923Y-78188036D01*
X140210674Y-78180111D01*
X140208461Y-78172493D01*
X140205021Y-78160652D01*
X140201012Y-78141293D01*
X140200643Y-78138370D01*
X140198474Y-78121203D01*
X140195558Y-78113837D01*
X140195556Y-78113831D01*
X140182200Y-78080098D01*
X140178355Y-78068868D01*
X140168230Y-78034017D01*
X140168230Y-78034016D01*
X140166019Y-78026407D01*
X140155705Y-78008966D01*
X140147008Y-77991213D01*
X140142472Y-77979758D01*
X140139552Y-77972383D01*
X140113563Y-77936612D01*
X140107047Y-77926692D01*
X140088578Y-77895463D01*
X140084542Y-77888638D01*
X140070221Y-77874317D01*
X140057380Y-77859283D01*
X140050131Y-77849306D01*
X140045472Y-77842893D01*
X140039368Y-77837843D01*
X140039363Y-77837838D01*
X140011402Y-77814707D01*
X140002621Y-77806717D01*
X139170404Y-76974499D01*
X139136379Y-76912187D01*
X139133500Y-76885404D01*
X139133500Y-66668767D01*
X139134027Y-66657584D01*
X139135702Y-66650091D01*
X139133562Y-66582014D01*
X139133500Y-66578055D01*
X139133500Y-66550144D01*
X139132995Y-66546144D01*
X139132062Y-66534301D01*
X139130922Y-66498029D01*
X139130673Y-66490110D01*
X139125022Y-66470658D01*
X139121014Y-66451306D01*
X139119467Y-66439063D01*
X139118474Y-66431203D01*
X139115556Y-66423832D01*
X139102200Y-66390097D01*
X139098355Y-66378870D01*
X139092680Y-66359338D01*
X139086018Y-66336407D01*
X139081984Y-66329585D01*
X139081981Y-66329579D01*
X139075706Y-66318968D01*
X139067010Y-66301218D01*
X139062472Y-66289756D01*
X139062469Y-66289751D01*
X139059552Y-66282383D01*
X139033573Y-66246625D01*
X139027057Y-66236707D01*
X139008575Y-66205457D01*
X139004542Y-66198637D01*
X138990218Y-66184313D01*
X138977376Y-66169278D01*
X138972398Y-66162426D01*
X138965472Y-66152893D01*
X138931406Y-66124711D01*
X138922627Y-66116722D01*
X135851218Y-63045313D01*
X135817192Y-62983001D01*
X135819755Y-62919589D01*
X135830865Y-62883022D01*
X135832370Y-62878069D01*
X135861529Y-62656590D01*
X135863156Y-62590000D01*
X135844852Y-62367361D01*
X135790431Y-62150702D01*
X135701354Y-61945840D01*
X135580014Y-61758277D01*
X135429670Y-61593051D01*
X135425619Y-61589852D01*
X135425615Y-61589848D01*
X135258414Y-61457800D01*
X135258410Y-61457798D01*
X135254359Y-61454598D01*
X135213053Y-61431796D01*
X135163084Y-61381364D01*
X135148312Y-61311921D01*
X135173428Y-61245516D01*
X135200780Y-61218909D01*
X135267661Y-61171203D01*
X135379860Y-61091173D01*
X135538096Y-60933489D01*
X135597594Y-60850689D01*
X135665435Y-60756277D01*
X135668453Y-60752077D01*
X135767430Y-60551811D01*
X135832370Y-60338069D01*
X135861529Y-60116590D01*
X135863156Y-60050000D01*
X135844852Y-59827361D01*
X135790431Y-59610702D01*
X135701354Y-59405840D01*
X135580014Y-59218277D01*
X135429670Y-59053051D01*
X135425619Y-59049852D01*
X135425615Y-59049848D01*
X135258414Y-58917800D01*
X135258410Y-58917798D01*
X135254359Y-58914598D01*
X135058789Y-58806638D01*
X135053920Y-58804914D01*
X135053916Y-58804912D01*
X134853087Y-58733795D01*
X134853083Y-58733794D01*
X134848212Y-58732069D01*
X134843119Y-58731162D01*
X134843116Y-58731161D01*
X134633373Y-58693800D01*
X134633367Y-58693799D01*
X134628284Y-58692894D01*
X134554452Y-58691992D01*
X134410081Y-58690228D01*
X134410079Y-58690228D01*
X134404911Y-58690165D01*
X134184091Y-58723955D01*
X133971756Y-58793357D01*
X133773607Y-58896507D01*
X133769474Y-58899610D01*
X133769471Y-58899612D01*
X133745247Y-58917800D01*
X133594965Y-59030635D01*
X133440629Y-59192138D01*
X133314743Y-59376680D01*
X133220688Y-59579305D01*
X133160989Y-59794570D01*
X133137251Y-60016695D01*
X133137548Y-60021848D01*
X133137548Y-60021851D01*
X133143011Y-60116590D01*
X133150110Y-60239715D01*
X133151247Y-60244761D01*
X133151248Y-60244767D01*
X133171119Y-60332939D01*
X133199222Y-60457639D01*
X133283266Y-60664616D01*
X133399987Y-60855088D01*
X133546250Y-61023938D01*
X133718126Y-61166632D01*
X133739401Y-61179064D01*
X133791445Y-61209476D01*
X133840169Y-61261114D01*
X133853240Y-61330897D01*
X133826509Y-61396669D01*
X133786055Y-61430027D01*
X133773607Y-61436507D01*
X133769474Y-61439610D01*
X133769471Y-61439612D01*
X133745247Y-61457800D01*
X133594965Y-61570635D01*
X133440629Y-61732138D01*
X133314743Y-61916680D01*
X133220688Y-62119305D01*
X133160989Y-62334570D01*
X133137251Y-62556695D01*
X133137548Y-62561848D01*
X133137548Y-62561851D01*
X133143011Y-62656590D01*
X133150110Y-62779715D01*
X133151247Y-62784761D01*
X133151248Y-62784767D01*
X133171119Y-62872939D01*
X133199222Y-62997639D01*
X133283266Y-63204616D01*
X133399987Y-63395088D01*
X133546250Y-63563938D01*
X133718126Y-63706632D01*
X133788595Y-63747811D01*
X133791445Y-63749476D01*
X133840169Y-63801114D01*
X133853240Y-63870897D01*
X133826509Y-63936669D01*
X133786055Y-63970027D01*
X133773607Y-63976507D01*
X133769474Y-63979610D01*
X133769471Y-63979612D01*
X133599100Y-64107530D01*
X133594965Y-64110635D01*
X133440629Y-64272138D01*
X133314743Y-64456680D01*
X133220688Y-64659305D01*
X133160989Y-64874570D01*
X133137251Y-65096695D01*
X133150110Y-65319715D01*
X133151247Y-65324761D01*
X133151248Y-65324767D01*
X133175304Y-65431508D01*
X133199222Y-65537639D01*
X133283266Y-65744616D01*
X133399987Y-65935088D01*
X133546250Y-66103938D01*
X133718126Y-66246632D01*
X133768329Y-66275968D01*
X133791955Y-66289774D01*
X133840679Y-66341412D01*
X133853750Y-66411195D01*
X133827019Y-66476967D01*
X133786562Y-66510327D01*
X133778457Y-66514546D01*
X133769738Y-66520036D01*
X133599433Y-66647905D01*
X133591726Y-66654748D01*
X133444590Y-66808717D01*
X133438104Y-66816727D01*
X133318098Y-66992649D01*
X133313000Y-67001623D01*
X133223338Y-67194783D01*
X133219775Y-67204470D01*
X133164389Y-67404183D01*
X133165912Y-67412607D01*
X133178292Y-67416000D01*
X135818344Y-67416000D01*
X135831875Y-67412027D01*
X135833180Y-67402947D01*
X135791214Y-67235875D01*
X135787894Y-67226124D01*
X135702972Y-67030814D01*
X135698105Y-67021739D01*
X135582426Y-66842926D01*
X135576136Y-66834757D01*
X135432806Y-66677240D01*
X135425273Y-66670215D01*
X135258139Y-66538222D01*
X135249556Y-66532520D01*
X135212602Y-66512120D01*
X135162631Y-66461687D01*
X135147859Y-66392245D01*
X135172975Y-66325839D01*
X135200327Y-66299232D01*
X135232942Y-66275968D01*
X135379860Y-66171173D01*
X135388638Y-66162425D01*
X135451008Y-66128508D01*
X135521814Y-66133694D01*
X135566675Y-66162579D01*
X137029595Y-67625500D01*
X137063621Y-67687812D01*
X137066500Y-67714595D01*
X137066500Y-69766404D01*
X137046498Y-69834525D01*
X136992842Y-69881018D01*
X136922568Y-69891122D01*
X136857988Y-69861628D01*
X136851405Y-69855499D01*
X136813648Y-69817742D01*
X136806113Y-69809462D01*
X136802000Y-69802982D01*
X136752347Y-69756355D01*
X136749506Y-69753601D01*
X136729770Y-69733865D01*
X136726573Y-69731385D01*
X136717551Y-69723680D01*
X136691100Y-69698841D01*
X136685321Y-69693414D01*
X136678375Y-69689595D01*
X136678372Y-69689593D01*
X136667566Y-69683652D01*
X136651047Y-69672801D01*
X136650583Y-69672441D01*
X136635041Y-69660386D01*
X136627772Y-69657241D01*
X136627768Y-69657238D01*
X136594463Y-69642826D01*
X136583813Y-69637609D01*
X136545060Y-69616305D01*
X136525437Y-69611267D01*
X136506734Y-69604863D01*
X136495420Y-69599967D01*
X136495419Y-69599967D01*
X136488145Y-69596819D01*
X136480322Y-69595580D01*
X136480312Y-69595577D01*
X136444476Y-69589901D01*
X136432856Y-69587495D01*
X136397711Y-69578472D01*
X136397710Y-69578472D01*
X136390030Y-69576500D01*
X136369776Y-69576500D01*
X136350065Y-69574949D01*
X136337886Y-69573020D01*
X136330057Y-69571780D01*
X136322165Y-69572526D01*
X136286039Y-69575941D01*
X136274181Y-69576500D01*
X135776805Y-69576500D01*
X135708684Y-69556498D01*
X135671013Y-69518940D01*
X135582822Y-69382617D01*
X135582820Y-69382614D01*
X135580014Y-69378277D01*
X135429670Y-69213051D01*
X135425619Y-69209852D01*
X135425615Y-69209848D01*
X135258414Y-69077800D01*
X135258410Y-69077798D01*
X135254359Y-69074598D01*
X135212569Y-69051529D01*
X135162598Y-69001097D01*
X135147826Y-68931654D01*
X135172942Y-68865248D01*
X135200294Y-68838641D01*
X135375328Y-68713792D01*
X135383200Y-68707139D01*
X135534052Y-68556812D01*
X135540730Y-68548965D01*
X135665003Y-68376020D01*
X135670313Y-68367183D01*
X135764670Y-68176267D01*
X135768469Y-68166672D01*
X135830377Y-67962910D01*
X135832555Y-67952837D01*
X135833986Y-67941962D01*
X135831775Y-67927778D01*
X135818617Y-67924000D01*
X133183225Y-67924000D01*
X133169694Y-67927973D01*
X133168257Y-67937966D01*
X133198565Y-68072446D01*
X133201645Y-68082275D01*
X133281770Y-68279603D01*
X133286413Y-68288794D01*
X133397694Y-68470388D01*
X133403777Y-68478699D01*
X133543213Y-68639667D01*
X133550580Y-68646883D01*
X133714434Y-68782916D01*
X133722881Y-68788831D01*
X133791969Y-68829203D01*
X133840693Y-68880842D01*
X133853764Y-68950625D01*
X133827033Y-69016396D01*
X133786584Y-69049752D01*
X133773607Y-69056507D01*
X133769474Y-69059610D01*
X133769471Y-69059612D01*
X133745247Y-69077800D01*
X133594965Y-69190635D01*
X133440629Y-69352138D01*
X133314743Y-69536680D01*
X133276011Y-69620121D01*
X133239471Y-69698841D01*
X133220688Y-69739305D01*
X133160989Y-69954570D01*
X133137251Y-70176695D01*
X133150110Y-70399715D01*
X133151247Y-70404761D01*
X133151248Y-70404767D01*
X133175304Y-70511508D01*
X133199222Y-70617639D01*
X133283266Y-70824616D01*
X133399987Y-71015088D01*
X133546250Y-71183938D01*
X133550230Y-71187242D01*
X133554981Y-71191187D01*
X133594616Y-71250090D01*
X133596113Y-71321071D01*
X133558997Y-71381593D01*
X133518724Y-71406112D01*
X133403295Y-71449385D01*
X133286739Y-71536739D01*
X133199385Y-71653295D01*
X133148255Y-71789684D01*
X133141500Y-71851866D01*
X133141500Y-73160406D01*
X133121498Y-73228527D01*
X133104595Y-73249501D01*
X129027747Y-77326348D01*
X129019461Y-77333888D01*
X129012982Y-77338000D01*
X129007557Y-77343777D01*
X128966357Y-77387651D01*
X128963602Y-77390493D01*
X128943865Y-77410230D01*
X128941385Y-77413427D01*
X128933682Y-77422447D01*
X128903414Y-77454679D01*
X128899595Y-77461625D01*
X128899593Y-77461628D01*
X128893652Y-77472434D01*
X128882801Y-77488953D01*
X128870386Y-77504959D01*
X128867241Y-77512228D01*
X128867238Y-77512232D01*
X128852826Y-77545537D01*
X128847609Y-77556187D01*
X128826305Y-77594940D01*
X128824334Y-77602615D01*
X128824334Y-77602616D01*
X128821267Y-77614562D01*
X128814863Y-77633266D01*
X128806819Y-77651855D01*
X128805580Y-77659678D01*
X128805577Y-77659688D01*
X128799901Y-77695524D01*
X128797495Y-77707144D01*
X128786500Y-77749970D01*
X128786500Y-77770224D01*
X128784949Y-77789934D01*
X128781780Y-77809943D01*
X128782526Y-77817835D01*
X128785941Y-77853961D01*
X128786500Y-77865819D01*
X128786500Y-79654515D01*
X128766498Y-79722636D01*
X128732770Y-79757728D01*
X128641191Y-79821852D01*
X128491852Y-79971191D01*
X128370714Y-80144195D01*
X128281458Y-80335605D01*
X128280036Y-80340913D01*
X128280035Y-80340915D01*
X128269238Y-80381210D01*
X128226796Y-80539606D01*
X128208389Y-80750000D01*
X128226796Y-80960394D01*
X128228220Y-80965707D01*
X128228220Y-80965709D01*
X128280035Y-81159083D01*
X128281458Y-81164395D01*
X128370714Y-81355805D01*
X128491852Y-81528809D01*
X128641191Y-81678148D01*
X128645699Y-81681305D01*
X128645702Y-81681307D01*
X128809685Y-81796129D01*
X128814194Y-81799286D01*
X128819176Y-81801609D01*
X128819181Y-81801612D01*
X129000623Y-81886219D01*
X129005605Y-81888542D01*
X129010913Y-81889964D01*
X129010915Y-81889965D01*
X129133431Y-81922793D01*
X129194054Y-81959745D01*
X129225075Y-82023606D01*
X129216647Y-82094100D01*
X129171444Y-82148847D01*
X129100820Y-82170500D01*
X128013500Y-82170500D01*
X127945379Y-82150498D01*
X127898886Y-82096842D01*
X127887500Y-82044500D01*
X127887500Y-58850594D01*
X127907502Y-58782473D01*
X127924405Y-58761499D01*
X132925019Y-53760885D01*
X132987331Y-53726859D01*
X133058146Y-53731924D01*
G37*
%TD.AperFunction*%
%TA.AperFunction,Conductor*%
G36*
X137012507Y-75418470D02*
G01*
X137056977Y-75473813D01*
X137066500Y-75521867D01*
X137066500Y-78585405D01*
X137046498Y-78653526D01*
X137029595Y-78674501D01*
X136833970Y-78870125D01*
X136647742Y-79056353D01*
X136639463Y-79063887D01*
X136632982Y-79068000D01*
X136597454Y-79105834D01*
X136586357Y-79117651D01*
X136583602Y-79120493D01*
X136563865Y-79140230D01*
X136561385Y-79143427D01*
X136553682Y-79152447D01*
X136523414Y-79184679D01*
X136519595Y-79191625D01*
X136519593Y-79191628D01*
X136513652Y-79202434D01*
X136502801Y-79218953D01*
X136490386Y-79234959D01*
X136487241Y-79242228D01*
X136487238Y-79242232D01*
X136472826Y-79275537D01*
X136467609Y-79286187D01*
X136446305Y-79324940D01*
X136444334Y-79332615D01*
X136444334Y-79332616D01*
X136441267Y-79344562D01*
X136434863Y-79363266D01*
X136426819Y-79381855D01*
X136425580Y-79389678D01*
X136425577Y-79389688D01*
X136419901Y-79425524D01*
X136417495Y-79437144D01*
X136406500Y-79479970D01*
X136406500Y-79500224D01*
X136404949Y-79519934D01*
X136401780Y-79539943D01*
X136402526Y-79547835D01*
X136405941Y-79583961D01*
X136406500Y-79595819D01*
X136406500Y-79654515D01*
X136386498Y-79722636D01*
X136352770Y-79757728D01*
X136261191Y-79821852D01*
X136111852Y-79971191D01*
X135990714Y-80144195D01*
X135901458Y-80335605D01*
X135900036Y-80340911D01*
X135900033Y-80340920D01*
X135891103Y-80374247D01*
X135854151Y-80434869D01*
X135790290Y-80465890D01*
X135719796Y-80457460D01*
X135665049Y-80412257D01*
X135648127Y-80375835D01*
X135632755Y-80321328D01*
X135628636Y-80310597D01*
X135535671Y-80122083D01*
X135529665Y-80112281D01*
X135526510Y-80108056D01*
X135515251Y-80099606D01*
X135502834Y-80106377D01*
X134872021Y-80737189D01*
X134864408Y-80751132D01*
X134864539Y-80752966D01*
X134868790Y-80759580D01*
X135502611Y-81393400D01*
X135514986Y-81400157D01*
X135521566Y-81395231D01*
X135604095Y-81247865D01*
X135608771Y-81237362D01*
X135649754Y-81116630D01*
X135690591Y-81058554D01*
X135756344Y-81031775D01*
X135826136Y-81044796D01*
X135877809Y-81093483D01*
X135890774Y-81124521D01*
X135900034Y-81159083D01*
X135900035Y-81159085D01*
X135901458Y-81164395D01*
X135990714Y-81355805D01*
X136111852Y-81528809D01*
X136261191Y-81678148D01*
X136265699Y-81681305D01*
X136265702Y-81681307D01*
X136429685Y-81796129D01*
X136434194Y-81799286D01*
X136439176Y-81801609D01*
X136439181Y-81801612D01*
X136620623Y-81886219D01*
X136625605Y-81888542D01*
X136630913Y-81889964D01*
X136630915Y-81889965D01*
X136753431Y-81922793D01*
X136814054Y-81959745D01*
X136845075Y-82023606D01*
X136836647Y-82094100D01*
X136791444Y-82148847D01*
X136720820Y-82170500D01*
X134832207Y-82170500D01*
X134764086Y-82150498D01*
X134717593Y-82096842D01*
X134707489Y-82026568D01*
X134736983Y-81961988D01*
X134791706Y-81925187D01*
X134987362Y-81858771D01*
X134997865Y-81854095D01*
X135140404Y-81774270D01*
X135150266Y-81764194D01*
X135147311Y-81756522D01*
X134512811Y-81122021D01*
X134498868Y-81114408D01*
X134497034Y-81114539D01*
X134490420Y-81118790D01*
X133858239Y-81750972D01*
X133852046Y-81762314D01*
X133861928Y-81774803D01*
X133917041Y-81811627D01*
X133927146Y-81817114D01*
X134120267Y-81900086D01*
X134131210Y-81903641D01*
X134210607Y-81921607D01*
X134272634Y-81956150D01*
X134306138Y-82018743D01*
X134300484Y-82089514D01*
X134257465Y-82145994D01*
X134190741Y-82170249D01*
X134182799Y-82170500D01*
X132279180Y-82170500D01*
X132211059Y-82150498D01*
X132164566Y-82096842D01*
X132154462Y-82026568D01*
X132183956Y-81961988D01*
X132246569Y-81922793D01*
X132369085Y-81889965D01*
X132369087Y-81889964D01*
X132374395Y-81888542D01*
X132379377Y-81886219D01*
X132560819Y-81801612D01*
X132560824Y-81801609D01*
X132565806Y-81799286D01*
X132570315Y-81796129D01*
X132734298Y-81681307D01*
X132734301Y-81681305D01*
X132738809Y-81678148D01*
X132888148Y-81528809D01*
X133009286Y-81355805D01*
X133098542Y-81164395D01*
X133099965Y-81159085D01*
X133099967Y-81159080D01*
X133107983Y-81129164D01*
X133144935Y-81068542D01*
X133208796Y-81037521D01*
X133279290Y-81045951D01*
X133334037Y-81091154D01*
X133351812Y-81130763D01*
X133356408Y-81148861D01*
X133360250Y-81159710D01*
X133448247Y-81350592D01*
X133453996Y-81360549D01*
X133475112Y-81390427D01*
X133485702Y-81398816D01*
X133499001Y-81391788D01*
X134127979Y-80762811D01*
X134135592Y-80748868D01*
X134135461Y-80747034D01*
X134131210Y-80740420D01*
X133495603Y-80104814D01*
X133483228Y-80098057D01*
X133477262Y-80102523D01*
X133383256Y-80281198D01*
X133378851Y-80291832D01*
X133351329Y-80380466D01*
X133312025Y-80439591D01*
X133246996Y-80468082D01*
X133176887Y-80456892D01*
X133123957Y-80409575D01*
X133109289Y-80375713D01*
X133099965Y-80340915D01*
X133099964Y-80340913D01*
X133098542Y-80335605D01*
X133009286Y-80144195D01*
X132888148Y-79971191D01*
X132738809Y-79821852D01*
X132647230Y-79757728D01*
X132630508Y-79736808D01*
X133850921Y-79736808D01*
X133854407Y-79745196D01*
X134487189Y-80377979D01*
X134501132Y-80385592D01*
X134502966Y-80385461D01*
X134509580Y-80381210D01*
X135141700Y-79749089D01*
X135148457Y-79736714D01*
X135142427Y-79728658D01*
X135054972Y-79673478D01*
X135044721Y-79668254D01*
X134849497Y-79590368D01*
X134838469Y-79587101D01*
X134632322Y-79546096D01*
X134620875Y-79544893D01*
X134410716Y-79542142D01*
X134399236Y-79543045D01*
X134192087Y-79578640D01*
X134180979Y-79581617D01*
X133983782Y-79654366D01*
X133973400Y-79659318D01*
X133860519Y-79726475D01*
X133850921Y-79736808D01*
X132630508Y-79736808D01*
X132602901Y-79702271D01*
X132593500Y-79654515D01*
X132593500Y-76754594D01*
X132613502Y-76686473D01*
X132630405Y-76665499D01*
X133725500Y-75570405D01*
X133787812Y-75536379D01*
X133814595Y-75533500D01*
X136421233Y-75533500D01*
X136432416Y-75534027D01*
X136439909Y-75535702D01*
X136447835Y-75535453D01*
X136447836Y-75535453D01*
X136507986Y-75533562D01*
X136511945Y-75533500D01*
X136539856Y-75533500D01*
X136543791Y-75533003D01*
X136543856Y-75532995D01*
X136555693Y-75532062D01*
X136587951Y-75531048D01*
X136591970Y-75530922D01*
X136599889Y-75530673D01*
X136619343Y-75525021D01*
X136638700Y-75521013D01*
X136650930Y-75519468D01*
X136650931Y-75519468D01*
X136658797Y-75518474D01*
X136666168Y-75515555D01*
X136666170Y-75515555D01*
X136699912Y-75502196D01*
X136711142Y-75498351D01*
X136745983Y-75488229D01*
X136745984Y-75488229D01*
X136753593Y-75486018D01*
X136760412Y-75481985D01*
X136760417Y-75481983D01*
X136771028Y-75475707D01*
X136788776Y-75467012D01*
X136807617Y-75459552D01*
X136843387Y-75433564D01*
X136853306Y-75427049D01*
X136876359Y-75413415D01*
X136945175Y-75395954D01*
X137012507Y-75418470D01*
G37*
%TD.AperFunction*%
%TD*%
M02*
