M48
; DRILL file {KiCad (6.0.7)} date Fri Dec 15 10:10:13 2023
; FORMAT={-:-/ absolute / inch / decimal}
; #@! TF.CreationDate,2023-12-15T10:10:13-08:00
; #@! TF.GenerationSoftware,Kicad,Pcbnew,(6.0.7)
; #@! TF.FileFunction,Plated,1,2,PTH
FMAT,2
INCH
; #@! TA.AperFunction,Plated,PTH,ComponentDrill
T1C0.0276
; #@! TA.AperFunction,Plated,PTH,ComponentDrill
T2C0.0315
; #@! TA.AperFunction,Plated,PTH,ComponentDrill
T3C0.0320
; #@! TA.AperFunction,Plated,PTH,ComponentDrill
T4C0.0394
; #@! TA.AperFunction,Plated,PTH,ComponentDrill
T5C0.0866
%
G90
G05
T2
X5.0Y-3.435
X5.0787Y-3.435
X5.1575Y-3.435
X5.4331Y-3.435
X5.5118Y-3.435
X5.5906Y-3.435
T3
X5.0953Y-3.1791
X5.1953Y-3.1791
X5.2953Y-3.1791
X5.3953Y-3.1791
X5.4953Y-3.1791
T4
X5.2953Y-1.9193
X5.2953Y-2.0193
X5.2953Y-2.1193
X5.2953Y-2.3642
X5.2953Y-2.4642
X5.2953Y-2.5642
X5.2953Y-2.6642
X5.2953Y-2.7642
X5.2953Y-2.8642
T5
X4.9409Y-1.7224
X4.9409Y-3.6516
X5.6496Y-1.7224
X5.6496Y-3.6516
T1
G00X4.9134Y-3.4508
M15
G01X4.9134Y-3.4193
M16
G05
G00X5.2441Y-3.4508
M15
G01X5.2441Y-3.4193
M16
G05
G00X5.3465Y-3.4193
M15
G01X5.3465Y-3.4508
M16
G05
G00X5.6772Y-3.4193
M15
G01X5.6772Y-3.4508
M16
G05
T0
M30
